G04 #@! TF.GenerationSoftware,KiCad,Pcbnew,(7.0.0-0)*
G04 #@! TF.CreationDate,2023-03-22T08:14:14+00:00*
G04 #@! TF.ProjectId,ESP_AC_CDI_1,4553505f-4143-45f4-9344-495f312e6b69,rev?*
G04 #@! TF.SameCoordinates,Original*
G04 #@! TF.FileFunction,Soldermask,Top*
G04 #@! TF.FilePolarity,Negative*
%FSLAX46Y46*%
G04 Gerber Fmt 4.6, Leading zero omitted, Abs format (unit mm)*
G04 Created by KiCad (PCBNEW (7.0.0-0)) date 2023-03-22 08:14:14*
%MOMM*%
%LPD*%
G01*
G04 APERTURE LIST*
G04 Aperture macros list*
%AMRoundRect*
0 Rectangle with rounded corners*
0 $1 Rounding radius*
0 $2 $3 $4 $5 $6 $7 $8 $9 X,Y pos of 4 corners*
0 Add a 4 corners polygon primitive as box body*
4,1,4,$2,$3,$4,$5,$6,$7,$8,$9,$2,$3,0*
0 Add four circle primitives for the rounded corners*
1,1,$1+$1,$2,$3*
1,1,$1+$1,$4,$5*
1,1,$1+$1,$6,$7*
1,1,$1+$1,$8,$9*
0 Add four rect primitives between the rounded corners*
20,1,$1+$1,$2,$3,$4,$5,0*
20,1,$1+$1,$4,$5,$6,$7,0*
20,1,$1+$1,$6,$7,$8,$9,0*
20,1,$1+$1,$8,$9,$2,$3,0*%
G04 Aperture macros list end*
%ADD10RoundRect,0.250000X-0.475000X0.337500X-0.475000X-0.337500X0.475000X-0.337500X0.475000X0.337500X0*%
%ADD11O,2.200000X2.200000*%
%ADD12R,2.200000X2.200000*%
%ADD13RoundRect,0.249999X1.425001X-0.450001X1.425001X0.450001X-1.425001X0.450001X-1.425001X-0.450001X0*%
%ADD14RoundRect,0.237500X-0.300000X-0.237500X0.300000X-0.237500X0.300000X0.237500X-0.300000X0.237500X0*%
%ADD15RoundRect,0.237500X0.300000X0.237500X-0.300000X0.237500X-0.300000X-0.237500X0.300000X-0.237500X0*%
%ADD16RoundRect,0.250000X0.250000X0.250000X-0.250000X0.250000X-0.250000X-0.250000X0.250000X-0.250000X0*%
%ADD17RoundRect,0.250000X-0.250000X0.250000X-0.250000X-0.250000X0.250000X-0.250000X0.250000X0.250000X0*%
%ADD18RoundRect,0.250000X-0.325000X-0.450000X0.325000X-0.450000X0.325000X0.450000X-0.325000X0.450000X0*%
%ADD19RoundRect,0.250000X-0.350000X-0.450000X0.350000X-0.450000X0.350000X0.450000X-0.350000X0.450000X0*%
%ADD20R,0.900000X2.000000*%
%ADD21R,2.000000X0.900000*%
%ADD22R,5.000000X5.000000*%
%ADD23C,1.498600*%
%ADD24R,1.498600X1.498600*%
%ADD25RoundRect,0.250000X-0.412500X-1.100000X0.412500X-1.100000X0.412500X1.100000X-0.412500X1.100000X0*%
%ADD26RoundRect,0.250000X0.350000X0.450000X-0.350000X0.450000X-0.350000X-0.450000X0.350000X-0.450000X0*%
%ADD27RoundRect,0.250000X-0.450000X0.325000X-0.450000X-0.325000X0.450000X-0.325000X0.450000X0.325000X0*%
%ADD28C,3.302000*%
%ADD29O,1.676400X3.352800*%
%ADD30RoundRect,0.150000X0.587500X0.150000X-0.587500X0.150000X-0.587500X-0.150000X0.587500X-0.150000X0*%
%ADD31RoundRect,0.250000X0.450000X-0.350000X0.450000X0.350000X-0.450000X0.350000X-0.450000X-0.350000X0*%
%ADD32RoundRect,0.250000X-0.262500X-0.450000X0.262500X-0.450000X0.262500X0.450000X-0.262500X0.450000X0*%
%ADD33RoundRect,0.250000X-0.450000X0.350000X-0.450000X-0.350000X0.450000X-0.350000X0.450000X0.350000X0*%
%ADD34C,2.400000*%
%ADD35RoundRect,0.150000X-0.587500X-0.150000X0.587500X-0.150000X0.587500X0.150000X-0.587500X0.150000X0*%
%ADD36R,1.700000X1.700000*%
%ADD37O,1.700000X1.700000*%
%ADD38O,2.400000X2.400000*%
%ADD39C,2.374900*%
%ADD40C,0.990600*%
%ADD41C,0.787400*%
%ADD42RoundRect,0.237500X0.237500X-0.300000X0.237500X0.300000X-0.237500X0.300000X-0.237500X-0.300000X0*%
%ADD43RoundRect,0.250000X-0.450000X0.262500X-0.450000X-0.262500X0.450000X-0.262500X0.450000X0.262500X0*%
%ADD44RoundRect,0.250000X0.412500X0.650000X-0.412500X0.650000X-0.412500X-0.650000X0.412500X-0.650000X0*%
G04 APERTURE END LIST*
D10*
X226550000Y-85212500D03*
X226550000Y-87287500D03*
D11*
X226609999Y-94609999D03*
D12*
X226609999Y-102229999D03*
D13*
X220490000Y-83200000D03*
X220490000Y-89300000D03*
D12*
X220429999Y-94609999D03*
D11*
X220429999Y-102229999D03*
D12*
X191439999Y-125999999D03*
D11*
X191439999Y-118379999D03*
D14*
X172517500Y-137830000D03*
X174242500Y-137830000D03*
D15*
X169252500Y-139510000D03*
X167527500Y-139510000D03*
X223562500Y-143050000D03*
X221837500Y-143050000D03*
D16*
X201230000Y-111330000D03*
X198730000Y-111330000D03*
X225210000Y-148280000D03*
X222710000Y-148280000D03*
D12*
X198669999Y-130949999D03*
D11*
X198669999Y-123329999D03*
D17*
X203280000Y-113322500D03*
X203280000Y-115822500D03*
D18*
X193000000Y-134300000D03*
X195050000Y-134300000D03*
D19*
X211400000Y-148850000D03*
X213400000Y-148850000D03*
D20*
X165974999Y-132159999D03*
X167244999Y-132159999D03*
X168514999Y-132159999D03*
X169784999Y-132159999D03*
X171054999Y-132159999D03*
X172324999Y-132159999D03*
X173594999Y-132159999D03*
X174864999Y-132159999D03*
X176134999Y-132159999D03*
X177404999Y-132159999D03*
X178674999Y-132159999D03*
X179944999Y-132159999D03*
X181214999Y-132159999D03*
X182484999Y-132159999D03*
D21*
X183484999Y-129374999D03*
X183484999Y-128104999D03*
X183484999Y-126834999D03*
X183484999Y-125564999D03*
X183484999Y-124294999D03*
X183484999Y-123024999D03*
X183484999Y-121754999D03*
X183484999Y-120484999D03*
X183484999Y-119214999D03*
X183484999Y-117944999D03*
D20*
X182484999Y-115159999D03*
X181214999Y-115159999D03*
X179944999Y-115159999D03*
X178674999Y-115159999D03*
X177404999Y-115159999D03*
X176134999Y-115159999D03*
X174864999Y-115159999D03*
X173594999Y-115159999D03*
X172324999Y-115159999D03*
X171054999Y-115159999D03*
X169784999Y-115159999D03*
X168514999Y-115159999D03*
X167244999Y-115159999D03*
X165974999Y-115159999D03*
D22*
X173474999Y-124659999D03*
D23*
X198175000Y-148165000D03*
X198175000Y-145625000D03*
D24*
X198174999Y-143084999D03*
D25*
X198975000Y-136600000D03*
X202100000Y-136600000D03*
D26*
X218750000Y-143470000D03*
X216750000Y-143470000D03*
D27*
X170420000Y-107375000D03*
X170420000Y-109425000D03*
D28*
X211290000Y-101026000D03*
D29*
X211289999Y-83499999D03*
X213829999Y-83499999D03*
X208749999Y-83499999D03*
D30*
X212537500Y-145120000D03*
X212537500Y-143220000D03*
X210662500Y-144170000D03*
D31*
X207050000Y-149575000D03*
X207050000Y-147575000D03*
D32*
X187747500Y-134280000D03*
X189572500Y-134280000D03*
D33*
X204320000Y-104830000D03*
X204320000Y-106830000D03*
D34*
X198900000Y-83490000D03*
X198900000Y-105990000D03*
D35*
X216842500Y-146860000D03*
X216842500Y-148760000D03*
X218717500Y-147810000D03*
X196795000Y-113880000D03*
X196795000Y-115780000D03*
X198670000Y-114830000D03*
D36*
X192249999Y-146134999D03*
D37*
X192249999Y-148674999D03*
X189709999Y-146134999D03*
X189709999Y-148674999D03*
X187169999Y-146134999D03*
X187169999Y-148674999D03*
X184629999Y-146134999D03*
X184629999Y-148674999D03*
X182089999Y-146134999D03*
X182089999Y-148674999D03*
X179549999Y-146134999D03*
X179549999Y-148674999D03*
X177009999Y-146134999D03*
X177009999Y-148674999D03*
X174469999Y-146134999D03*
X174469999Y-148674999D03*
X171929999Y-146134999D03*
X171929999Y-148674999D03*
D34*
X224710000Y-137110000D03*
D38*
X209469999Y-137109999D03*
D26*
X192420000Y-114830000D03*
X190420000Y-114830000D03*
D39*
X169540000Y-85805000D03*
D40*
X169540000Y-88345000D03*
D39*
X169540000Y-90885000D03*
X172715000Y-85805000D03*
X172715000Y-90885000D03*
D40*
X174620000Y-87329000D03*
X174620000Y-89361000D03*
D41*
X170810000Y-88980000D03*
X170810000Y-87710000D03*
X172080000Y-88980000D03*
X172080000Y-87710000D03*
X173350000Y-88980000D03*
X173350000Y-87710000D03*
D42*
X204310000Y-99667500D03*
X204310000Y-101392500D03*
D36*
X207414999Y-113214999D03*
D37*
X207414999Y-115754999D03*
X207414999Y-118294999D03*
X207414999Y-120834999D03*
X207414999Y-123374999D03*
X207414999Y-125914999D03*
X207414999Y-128454999D03*
X207414999Y-130994999D03*
D43*
X170510000Y-102325000D03*
X170510000Y-104150000D03*
D44*
X194652500Y-137740000D03*
X191527500Y-137740000D03*
D26*
X174480000Y-140950000D03*
X172480000Y-140950000D03*
D31*
X204380000Y-86210000D03*
X204380000Y-84210000D03*
M02*
