G04 #@! TF.GenerationSoftware,KiCad,Pcbnew,(7.0.0-0)*
G04 #@! TF.CreationDate,2023-03-22T08:14:14+00:00*
G04 #@! TF.ProjectId,ESP_AC_CDI_1,4553505f-4143-45f4-9344-495f312e6b69,rev?*
G04 #@! TF.SameCoordinates,Original*
G04 #@! TF.FileFunction,Copper,L2,Bot*
G04 #@! TF.FilePolarity,Positive*
%FSLAX46Y46*%
G04 Gerber Fmt 4.6, Leading zero omitted, Abs format (unit mm)*
G04 Created by KiCad (PCBNEW (7.0.0-0)) date 2023-03-22 08:14:14*
%MOMM*%
%LPD*%
G01*
G04 APERTURE LIST*
G04 #@! TA.AperFunction,ComponentPad*
%ADD10O,2.200000X2.200000*%
G04 #@! TD*
G04 #@! TA.AperFunction,ComponentPad*
%ADD11R,2.200000X2.200000*%
G04 #@! TD*
G04 #@! TA.AperFunction,ComponentPad*
%ADD12C,1.498600*%
G04 #@! TD*
G04 #@! TA.AperFunction,ComponentPad*
%ADD13R,1.498600X1.498600*%
G04 #@! TD*
G04 #@! TA.AperFunction,ComponentPad*
%ADD14O,1.676400X3.352800*%
G04 #@! TD*
G04 #@! TA.AperFunction,ComponentPad*
%ADD15C,2.400000*%
G04 #@! TD*
G04 #@! TA.AperFunction,ComponentPad*
%ADD16R,1.700000X1.700000*%
G04 #@! TD*
G04 #@! TA.AperFunction,ComponentPad*
%ADD17O,1.700000X1.700000*%
G04 #@! TD*
G04 #@! TA.AperFunction,ComponentPad*
%ADD18O,2.400000X2.400000*%
G04 #@! TD*
G04 #@! TA.AperFunction,ViaPad*
%ADD19C,0.800000*%
G04 #@! TD*
G04 #@! TA.AperFunction,Conductor*
%ADD20C,0.250000*%
G04 #@! TD*
G04 #@! TA.AperFunction,Conductor*
%ADD21C,1.000000*%
G04 #@! TD*
G04 #@! TA.AperFunction,Conductor*
%ADD22C,0.200000*%
G04 #@! TD*
G04 APERTURE END LIST*
D10*
X226609999Y-94609999D03*
D11*
X226609999Y-102229999D03*
X220429999Y-94609999D03*
D10*
X220429999Y-102229999D03*
D11*
X191439999Y-125999999D03*
D10*
X191439999Y-118379999D03*
D11*
X198669999Y-130949999D03*
D10*
X198669999Y-123329999D03*
D12*
X198175000Y-148165000D03*
X198175000Y-145625000D03*
D13*
X198174999Y-143084999D03*
D14*
X211289999Y-83499999D03*
X213829999Y-83499999D03*
X208749999Y-83499999D03*
D15*
X198900000Y-83490000D03*
X198900000Y-105990000D03*
D16*
X192249999Y-146134999D03*
D17*
X192249999Y-148674999D03*
X189709999Y-146134999D03*
X189709999Y-148674999D03*
X187169999Y-146134999D03*
X187169999Y-148674999D03*
X184629999Y-146134999D03*
X184629999Y-148674999D03*
X182089999Y-146134999D03*
X182089999Y-148674999D03*
X179549999Y-146134999D03*
X179549999Y-148674999D03*
X177009999Y-146134999D03*
X177009999Y-148674999D03*
X174469999Y-146134999D03*
X174469999Y-148674999D03*
X171929999Y-146134999D03*
X171929999Y-148674999D03*
D15*
X224710000Y-137110000D03*
D18*
X209469999Y-137109999D03*
D16*
X207414999Y-113214999D03*
D17*
X207414999Y-115754999D03*
X207414999Y-118294999D03*
X207414999Y-120834999D03*
X207414999Y-123374999D03*
X207414999Y-125914999D03*
X207414999Y-128454999D03*
X207414999Y-130994999D03*
D19*
X175520000Y-84940000D03*
X170480000Y-97770000D03*
X166580000Y-100250000D03*
X166540000Y-112250000D03*
X208410000Y-141470000D03*
X204270000Y-95120000D03*
X204360000Y-81200000D03*
X194200000Y-130725000D03*
X168475000Y-127625000D03*
X176185000Y-109790000D03*
X176225000Y-119125000D03*
X174270000Y-135700000D03*
X194200000Y-110100000D03*
X166810000Y-136350000D03*
X178780000Y-124600000D03*
X202040000Y-133260000D03*
X189070000Y-130670000D03*
D20*
X166580000Y-100650000D02*
X166580000Y-100250000D01*
X168475000Y-102545000D02*
X166580000Y-100650000D01*
X168475000Y-127625000D02*
X168475000Y-102545000D01*
D21*
X198670000Y-123330000D02*
X206335000Y-130995000D01*
X206335000Y-130995000D02*
X207415000Y-130995000D01*
X211290000Y-83500000D02*
X211290000Y-88840000D01*
X211290000Y-88840000D02*
X210730000Y-89400000D01*
X210730000Y-89400000D02*
X201730000Y-89400000D01*
X201730000Y-89400000D02*
X198900000Y-86570000D01*
X198900000Y-86570000D02*
X198900000Y-83490000D01*
X207415000Y-108775000D02*
X204630000Y-105990000D01*
X204630000Y-105990000D02*
X198900000Y-105990000D01*
X207415000Y-123375000D02*
X221150000Y-137110000D01*
X221150000Y-137110000D02*
X224710000Y-137110000D01*
D22*
X176225000Y-119125000D02*
X176225000Y-109830000D01*
X176225000Y-109830000D02*
X176185000Y-109790000D01*
X194200000Y-110100000D02*
X194200000Y-130725000D01*
X176310000Y-109790000D02*
X176185000Y-109790000D01*
D21*
X207415000Y-108775000D02*
X207415000Y-113215000D01*
X207415000Y-123375000D02*
X207415000Y-120835000D01*
X207415000Y-128455000D02*
X207415000Y-128675000D01*
X207415000Y-128675000D02*
X207540000Y-128800000D01*
G04 #@! TA.AperFunction,Conductor*
G36*
X230266057Y-79399961D02*
G01*
X230328033Y-79416584D01*
X230373404Y-79461962D01*
X230390016Y-79523944D01*
X230399983Y-152575983D01*
X230383376Y-152637990D01*
X230337988Y-152683384D01*
X230275983Y-152700000D01*
X165123848Y-152700000D01*
X165061892Y-152683413D01*
X165016512Y-152638088D01*
X164999848Y-152576152D01*
X164995364Y-148927551D01*
X170602688Y-148927551D01*
X170603056Y-148938780D01*
X170655168Y-149133263D01*
X170658856Y-149143397D01*
X170754113Y-149347676D01*
X170759501Y-149357008D01*
X170888784Y-149541643D01*
X170895721Y-149549909D01*
X171055090Y-149709278D01*
X171063356Y-149716215D01*
X171247991Y-149845498D01*
X171257323Y-149850886D01*
X171461602Y-149946143D01*
X171471736Y-149949831D01*
X171666219Y-150001943D01*
X171677448Y-150002311D01*
X171680000Y-149991369D01*
X172180000Y-149991369D01*
X172182551Y-150002311D01*
X172193780Y-150001943D01*
X172388263Y-149949831D01*
X172398397Y-149946143D01*
X172602676Y-149850886D01*
X172612008Y-149845498D01*
X172796643Y-149716215D01*
X172804909Y-149709278D01*
X172964278Y-149549909D01*
X172971215Y-149541643D01*
X173098425Y-149359969D01*
X173142743Y-149321104D01*
X173200000Y-149307093D01*
X173257257Y-149321104D01*
X173301575Y-149359969D01*
X173428784Y-149541643D01*
X173435721Y-149549909D01*
X173595090Y-149709278D01*
X173603356Y-149716215D01*
X173787991Y-149845498D01*
X173797323Y-149850886D01*
X174001602Y-149946143D01*
X174011736Y-149949831D01*
X174206219Y-150001943D01*
X174217448Y-150002311D01*
X174220000Y-149991369D01*
X174720000Y-149991369D01*
X174722551Y-150002311D01*
X174733780Y-150001943D01*
X174928263Y-149949831D01*
X174938397Y-149946143D01*
X175142676Y-149850886D01*
X175152008Y-149845498D01*
X175336643Y-149716215D01*
X175344909Y-149709278D01*
X175504278Y-149549909D01*
X175511215Y-149541643D01*
X175638425Y-149359969D01*
X175682743Y-149321104D01*
X175740000Y-149307093D01*
X175797257Y-149321104D01*
X175841575Y-149359969D01*
X175968784Y-149541643D01*
X175975721Y-149549909D01*
X176135090Y-149709278D01*
X176143356Y-149716215D01*
X176327991Y-149845498D01*
X176337323Y-149850886D01*
X176541602Y-149946143D01*
X176551736Y-149949831D01*
X176746219Y-150001943D01*
X176757448Y-150002311D01*
X176760000Y-149991369D01*
X177260000Y-149991369D01*
X177262551Y-150002311D01*
X177273780Y-150001943D01*
X177468263Y-149949831D01*
X177478397Y-149946143D01*
X177682676Y-149850886D01*
X177692008Y-149845498D01*
X177876643Y-149716215D01*
X177884909Y-149709278D01*
X178044278Y-149549909D01*
X178051215Y-149541643D01*
X178178425Y-149359969D01*
X178222743Y-149321104D01*
X178280000Y-149307093D01*
X178337257Y-149321104D01*
X178381575Y-149359969D01*
X178508784Y-149541643D01*
X178515721Y-149549909D01*
X178675090Y-149709278D01*
X178683356Y-149716215D01*
X178867991Y-149845498D01*
X178877323Y-149850886D01*
X179081602Y-149946143D01*
X179091736Y-149949831D01*
X179286219Y-150001943D01*
X179297448Y-150002311D01*
X179300000Y-149991369D01*
X179800000Y-149991369D01*
X179802551Y-150002311D01*
X179813780Y-150001943D01*
X180008263Y-149949831D01*
X180018397Y-149946143D01*
X180222676Y-149850886D01*
X180232008Y-149845498D01*
X180416643Y-149716215D01*
X180424909Y-149709278D01*
X180584278Y-149549909D01*
X180591215Y-149541643D01*
X180718425Y-149359969D01*
X180762743Y-149321104D01*
X180820000Y-149307093D01*
X180877257Y-149321104D01*
X180921575Y-149359969D01*
X181048784Y-149541643D01*
X181055721Y-149549909D01*
X181215090Y-149709278D01*
X181223356Y-149716215D01*
X181407991Y-149845498D01*
X181417323Y-149850886D01*
X181621602Y-149946143D01*
X181631736Y-149949831D01*
X181826219Y-150001943D01*
X181837448Y-150002311D01*
X181840000Y-149991369D01*
X182340000Y-149991369D01*
X182342551Y-150002311D01*
X182353780Y-150001943D01*
X182548263Y-149949831D01*
X182558397Y-149946143D01*
X182762676Y-149850886D01*
X182772008Y-149845498D01*
X182956643Y-149716215D01*
X182964909Y-149709278D01*
X183124278Y-149549909D01*
X183131215Y-149541643D01*
X183258425Y-149359969D01*
X183302743Y-149321104D01*
X183360000Y-149307093D01*
X183417257Y-149321104D01*
X183461575Y-149359969D01*
X183588784Y-149541643D01*
X183595721Y-149549909D01*
X183755090Y-149709278D01*
X183763356Y-149716215D01*
X183947991Y-149845498D01*
X183957323Y-149850886D01*
X184161602Y-149946143D01*
X184171736Y-149949831D01*
X184366219Y-150001943D01*
X184377448Y-150002311D01*
X184380000Y-149991369D01*
X184880000Y-149991369D01*
X184882551Y-150002311D01*
X184893780Y-150001943D01*
X185088263Y-149949831D01*
X185098397Y-149946143D01*
X185302676Y-149850886D01*
X185312008Y-149845498D01*
X185496643Y-149716215D01*
X185504909Y-149709278D01*
X185664278Y-149549909D01*
X185671215Y-149541643D01*
X185798425Y-149359969D01*
X185842743Y-149321104D01*
X185900000Y-149307093D01*
X185957257Y-149321104D01*
X186001575Y-149359969D01*
X186128784Y-149541643D01*
X186135721Y-149549909D01*
X186295090Y-149709278D01*
X186303356Y-149716215D01*
X186487991Y-149845498D01*
X186497323Y-149850886D01*
X186701602Y-149946143D01*
X186711736Y-149949831D01*
X186906219Y-150001943D01*
X186917448Y-150002311D01*
X186920000Y-149991369D01*
X187420000Y-149991369D01*
X187422551Y-150002311D01*
X187433780Y-150001943D01*
X187628263Y-149949831D01*
X187638397Y-149946143D01*
X187842676Y-149850886D01*
X187852008Y-149845498D01*
X188036643Y-149716215D01*
X188044909Y-149709278D01*
X188204278Y-149549909D01*
X188211215Y-149541643D01*
X188338425Y-149359969D01*
X188382743Y-149321104D01*
X188440000Y-149307093D01*
X188497257Y-149321104D01*
X188541575Y-149359969D01*
X188668784Y-149541643D01*
X188675721Y-149549909D01*
X188835090Y-149709278D01*
X188843356Y-149716215D01*
X189027991Y-149845498D01*
X189037323Y-149850886D01*
X189241602Y-149946143D01*
X189251736Y-149949831D01*
X189446219Y-150001943D01*
X189457448Y-150002311D01*
X189460000Y-149991369D01*
X189960000Y-149991369D01*
X189962551Y-150002311D01*
X189973780Y-150001943D01*
X190168263Y-149949831D01*
X190178397Y-149946143D01*
X190382676Y-149850886D01*
X190392008Y-149845498D01*
X190576643Y-149716215D01*
X190584909Y-149709278D01*
X190744278Y-149549909D01*
X190751215Y-149541643D01*
X190878425Y-149359969D01*
X190922743Y-149321104D01*
X190980000Y-149307093D01*
X191037257Y-149321104D01*
X191081575Y-149359969D01*
X191208784Y-149541643D01*
X191215721Y-149549909D01*
X191375090Y-149709278D01*
X191383356Y-149716215D01*
X191567991Y-149845498D01*
X191577323Y-149850886D01*
X191781602Y-149946143D01*
X191791736Y-149949831D01*
X191986219Y-150001943D01*
X191997448Y-150002311D01*
X192000000Y-149991369D01*
X192500000Y-149991369D01*
X192502551Y-150002311D01*
X192513780Y-150001943D01*
X192708263Y-149949831D01*
X192718397Y-149946143D01*
X192922676Y-149850886D01*
X192932008Y-149845498D01*
X193116643Y-149716215D01*
X193124909Y-149709278D01*
X193284278Y-149549909D01*
X193291215Y-149541643D01*
X193420498Y-149357008D01*
X193425886Y-149347676D01*
X193521143Y-149143397D01*
X193524831Y-149133263D01*
X193576943Y-148938780D01*
X193577311Y-148927551D01*
X193566369Y-148925000D01*
X192516326Y-148925000D01*
X192503450Y-148928450D01*
X192500000Y-148941326D01*
X192500000Y-149991369D01*
X192000000Y-149991369D01*
X192000000Y-148941326D01*
X191996549Y-148928450D01*
X191983674Y-148925000D01*
X189976326Y-148925000D01*
X189963450Y-148928450D01*
X189960000Y-148941326D01*
X189960000Y-149991369D01*
X189460000Y-149991369D01*
X189460000Y-148941326D01*
X189456549Y-148928450D01*
X189443674Y-148925000D01*
X187436326Y-148925000D01*
X187423450Y-148928450D01*
X187420000Y-148941326D01*
X187420000Y-149991369D01*
X186920000Y-149991369D01*
X186920000Y-148941326D01*
X186916549Y-148928450D01*
X186903674Y-148925000D01*
X184896326Y-148925000D01*
X184883450Y-148928450D01*
X184880000Y-148941326D01*
X184880000Y-149991369D01*
X184380000Y-149991369D01*
X184380000Y-148941326D01*
X184376549Y-148928450D01*
X184363674Y-148925000D01*
X182356326Y-148925000D01*
X182343450Y-148928450D01*
X182340000Y-148941326D01*
X182340000Y-149991369D01*
X181840000Y-149991369D01*
X181840000Y-148941326D01*
X181836549Y-148928450D01*
X181823674Y-148925000D01*
X179816326Y-148925000D01*
X179803450Y-148928450D01*
X179800000Y-148941326D01*
X179800000Y-149991369D01*
X179300000Y-149991369D01*
X179300000Y-148941326D01*
X179296549Y-148928450D01*
X179283674Y-148925000D01*
X177276326Y-148925000D01*
X177263450Y-148928450D01*
X177260000Y-148941326D01*
X177260000Y-149991369D01*
X176760000Y-149991369D01*
X176760000Y-148941326D01*
X176756549Y-148928450D01*
X176743674Y-148925000D01*
X174736326Y-148925000D01*
X174723450Y-148928450D01*
X174720000Y-148941326D01*
X174720000Y-149991369D01*
X174220000Y-149991369D01*
X174220000Y-148941326D01*
X174216549Y-148928450D01*
X174203674Y-148925000D01*
X172196326Y-148925000D01*
X172183450Y-148928450D01*
X172180000Y-148941326D01*
X172180000Y-149991369D01*
X171680000Y-149991369D01*
X171680000Y-148941326D01*
X171676549Y-148928450D01*
X171663674Y-148925000D01*
X170613631Y-148925000D01*
X170602688Y-148927551D01*
X164995364Y-148927551D01*
X164991932Y-146135000D01*
X170566844Y-146135000D01*
X170567268Y-146140117D01*
X170585011Y-146354248D01*
X170585012Y-146354256D01*
X170585436Y-146359368D01*
X170586693Y-146364335D01*
X170586695Y-146364342D01*
X170639445Y-146572645D01*
X170640704Y-146577616D01*
X170642764Y-146582312D01*
X170729080Y-146779096D01*
X170729083Y-146779101D01*
X170731140Y-146783791D01*
X170736870Y-146792561D01*
X170851474Y-146967977D01*
X170851477Y-146967981D01*
X170854278Y-146972268D01*
X170857752Y-146976041D01*
X170857753Y-146976043D01*
X171003288Y-147134135D01*
X171003291Y-147134138D01*
X171006760Y-147137906D01*
X171010801Y-147141051D01*
X171180376Y-147273039D01*
X171180381Y-147273042D01*
X171184424Y-147276189D01*
X171227691Y-147299604D01*
X171227695Y-147299606D01*
X171273335Y-147342155D01*
X171292475Y-147401545D01*
X171280267Y-147462737D01*
X171239803Y-147510236D01*
X171063352Y-147633788D01*
X171055092Y-147640719D01*
X170895719Y-147800092D01*
X170888784Y-147808357D01*
X170759508Y-147992982D01*
X170754110Y-148002332D01*
X170658856Y-148206602D01*
X170655168Y-148216736D01*
X170603056Y-148411219D01*
X170602688Y-148422448D01*
X170613631Y-148425000D01*
X193566369Y-148425000D01*
X193577311Y-148422448D01*
X193576943Y-148411219D01*
X193524831Y-148216736D01*
X193521143Y-148206602D01*
X193501743Y-148165000D01*
X196912395Y-148165000D01*
X196931577Y-148384249D01*
X196932977Y-148389473D01*
X196987136Y-148591603D01*
X196987139Y-148591611D01*
X196988539Y-148596836D01*
X197081552Y-148796303D01*
X197207788Y-148976587D01*
X197363413Y-149132212D01*
X197543697Y-149258448D01*
X197743164Y-149351461D01*
X197955751Y-149408423D01*
X198175000Y-149427605D01*
X198394249Y-149408423D01*
X198606836Y-149351461D01*
X198806303Y-149258448D01*
X198986587Y-149132212D01*
X199142212Y-148976587D01*
X199268448Y-148796303D01*
X199361461Y-148596836D01*
X199418423Y-148384249D01*
X199437605Y-148165000D01*
X199418423Y-147945751D01*
X199361461Y-147733164D01*
X199268448Y-147533698D01*
X199142212Y-147353413D01*
X198986587Y-147197788D01*
X198905558Y-147141051D01*
X198810742Y-147074660D01*
X198810740Y-147074658D01*
X198806303Y-147071552D01*
X198658631Y-147002691D01*
X198606456Y-146956935D01*
X198587037Y-146890310D01*
X198606457Y-146823685D01*
X198658633Y-146777928D01*
X198797129Y-146713346D01*
X198806465Y-146707956D01*
X198852947Y-146675409D01*
X198860378Y-146667300D01*
X198854464Y-146658017D01*
X198186542Y-145990095D01*
X198174999Y-145983431D01*
X198163457Y-145990095D01*
X197495531Y-146658020D01*
X197489620Y-146667298D01*
X197497054Y-146675411D01*
X197543524Y-146707949D01*
X197552874Y-146713347D01*
X197691367Y-146777928D01*
X197743542Y-146823685D01*
X197762962Y-146890310D01*
X197743543Y-146956935D01*
X197691367Y-147002692D01*
X197548608Y-147069261D01*
X197548595Y-147069268D01*
X197543698Y-147071552D01*
X197539265Y-147074655D01*
X197539258Y-147074660D01*
X197367848Y-147194682D01*
X197367843Y-147194685D01*
X197363413Y-147197788D01*
X197359589Y-147201611D01*
X197359583Y-147201617D01*
X197211617Y-147349583D01*
X197211611Y-147349589D01*
X197207788Y-147353413D01*
X197204685Y-147357843D01*
X197204682Y-147357848D01*
X197084660Y-147529258D01*
X197084655Y-147529265D01*
X197081552Y-147533698D01*
X197079264Y-147538604D01*
X197079262Y-147538608D01*
X196990828Y-147728254D01*
X196990825Y-147728259D01*
X196988539Y-147733164D01*
X196987140Y-147738384D01*
X196987136Y-147738396D01*
X196968391Y-147808357D01*
X196931577Y-147945751D01*
X196931105Y-147951136D01*
X196931105Y-147951141D01*
X196923077Y-148042908D01*
X196912395Y-148165000D01*
X193501743Y-148165000D01*
X193425889Y-148002332D01*
X193420491Y-147992982D01*
X193291215Y-147808357D01*
X193284280Y-147800092D01*
X193172272Y-147688084D01*
X193140976Y-147635338D01*
X193138787Y-147574045D01*
X193166240Y-147519200D01*
X193216617Y-147484222D01*
X193346204Y-147435889D01*
X193463261Y-147348261D01*
X193550889Y-147231204D01*
X193601989Y-147094201D01*
X193608500Y-147033638D01*
X193608500Y-145630395D01*
X196921400Y-145630395D01*
X196939507Y-145837368D01*
X196941381Y-145847999D01*
X196995157Y-146048690D01*
X196998845Y-146058824D01*
X197086653Y-146247127D01*
X197092047Y-146256471D01*
X197124587Y-146302944D01*
X197132700Y-146310378D01*
X197141978Y-146304467D01*
X197809904Y-145636542D01*
X197816568Y-145625000D01*
X198533431Y-145625000D01*
X198540095Y-145636542D01*
X199208017Y-146304464D01*
X199217300Y-146310378D01*
X199225409Y-146302947D01*
X199257956Y-146256465D01*
X199263344Y-146247133D01*
X199351154Y-146058824D01*
X199354842Y-146048690D01*
X199408618Y-145847999D01*
X199410492Y-145837368D01*
X199428600Y-145630395D01*
X199428600Y-145619605D01*
X199410492Y-145412631D01*
X199408618Y-145402000D01*
X199354842Y-145201309D01*
X199351154Y-145191175D01*
X199263347Y-145002874D01*
X199257949Y-144993524D01*
X199225411Y-144947054D01*
X199217298Y-144939620D01*
X199208020Y-144945531D01*
X198540095Y-145613457D01*
X198533431Y-145625000D01*
X197816568Y-145625000D01*
X197809904Y-145613457D01*
X197141978Y-144945531D01*
X197132699Y-144939620D01*
X197124588Y-144947052D01*
X197092048Y-144993527D01*
X197086653Y-145002872D01*
X196998845Y-145191175D01*
X196995157Y-145201309D01*
X196941381Y-145402000D01*
X196939507Y-145412631D01*
X196921400Y-145619605D01*
X196921400Y-145630395D01*
X193608500Y-145630395D01*
X193608500Y-145236362D01*
X193601989Y-145175799D01*
X193550889Y-145038796D01*
X193463261Y-144921739D01*
X193416398Y-144886658D01*
X193353304Y-144839426D01*
X193353303Y-144839425D01*
X193346204Y-144834111D01*
X193337896Y-144831012D01*
X193337894Y-144831011D01*
X193216463Y-144785719D01*
X193216458Y-144785717D01*
X193209201Y-144783011D01*
X193201497Y-144782182D01*
X193201494Y-144782182D01*
X193151924Y-144776853D01*
X193151918Y-144776852D01*
X193148638Y-144776500D01*
X191351362Y-144776500D01*
X191348082Y-144776852D01*
X191348075Y-144776853D01*
X191298505Y-144782182D01*
X191298500Y-144782182D01*
X191290799Y-144783011D01*
X191283543Y-144785717D01*
X191283536Y-144785719D01*
X191162105Y-144831011D01*
X191162099Y-144831013D01*
X191153796Y-144834111D01*
X191146698Y-144839423D01*
X191146695Y-144839426D01*
X191043835Y-144916426D01*
X191043831Y-144916429D01*
X191036739Y-144921739D01*
X191031429Y-144928831D01*
X191031426Y-144928835D01*
X190954426Y-145031695D01*
X190954423Y-145031698D01*
X190949111Y-145038796D01*
X190946013Y-145047101D01*
X190946009Y-145047109D01*
X190903861Y-145160111D01*
X190867909Y-145211324D01*
X190811528Y-145238461D01*
X190749074Y-145234613D01*
X190696451Y-145200759D01*
X190636711Y-145135864D01*
X190636708Y-145135861D01*
X190633240Y-145132094D01*
X190524053Y-145047109D01*
X190459623Y-144996960D01*
X190459615Y-144996955D01*
X190455576Y-144993811D01*
X190451071Y-144991373D01*
X190451065Y-144991369D01*
X190262080Y-144889096D01*
X190262074Y-144889093D01*
X190257574Y-144886658D01*
X190252733Y-144884996D01*
X190252726Y-144884993D01*
X190049488Y-144815222D01*
X190049487Y-144815221D01*
X190044635Y-144813556D01*
X190039585Y-144812713D01*
X190039576Y-144812711D01*
X189827631Y-144777344D01*
X189827622Y-144777343D01*
X189822569Y-144776500D01*
X189597431Y-144776500D01*
X189592378Y-144777343D01*
X189592368Y-144777344D01*
X189380423Y-144812711D01*
X189380411Y-144812713D01*
X189375365Y-144813556D01*
X189370515Y-144815220D01*
X189370511Y-144815222D01*
X189167273Y-144884993D01*
X189167262Y-144884997D01*
X189162426Y-144886658D01*
X189157929Y-144889091D01*
X189157919Y-144889096D01*
X188968934Y-144991369D01*
X188968922Y-144991376D01*
X188964424Y-144993811D01*
X188960389Y-144996951D01*
X188960376Y-144996960D01*
X188790801Y-145128948D01*
X188790795Y-145128952D01*
X188786760Y-145132094D01*
X188783297Y-145135855D01*
X188783288Y-145135864D01*
X188637753Y-145293956D01*
X188637747Y-145293963D01*
X188634278Y-145297732D01*
X188631481Y-145302012D01*
X188631474Y-145302022D01*
X188543809Y-145436205D01*
X188499017Y-145477438D01*
X188440000Y-145492383D01*
X188380983Y-145477438D01*
X188336191Y-145436205D01*
X188248525Y-145302022D01*
X188248523Y-145302020D01*
X188245722Y-145297732D01*
X188210899Y-145259904D01*
X188096711Y-145135864D01*
X188096708Y-145135861D01*
X188093240Y-145132094D01*
X187984053Y-145047109D01*
X187919623Y-144996960D01*
X187919615Y-144996955D01*
X187915576Y-144993811D01*
X187911071Y-144991373D01*
X187911065Y-144991369D01*
X187722080Y-144889096D01*
X187722074Y-144889093D01*
X187717574Y-144886658D01*
X187712733Y-144884996D01*
X187712726Y-144884993D01*
X187509488Y-144815222D01*
X187509487Y-144815221D01*
X187504635Y-144813556D01*
X187499585Y-144812713D01*
X187499576Y-144812711D01*
X187287631Y-144777344D01*
X187287622Y-144777343D01*
X187282569Y-144776500D01*
X187057431Y-144776500D01*
X187052378Y-144777343D01*
X187052368Y-144777344D01*
X186840423Y-144812711D01*
X186840411Y-144812713D01*
X186835365Y-144813556D01*
X186830515Y-144815220D01*
X186830511Y-144815222D01*
X186627273Y-144884993D01*
X186627262Y-144884997D01*
X186622426Y-144886658D01*
X186617929Y-144889091D01*
X186617919Y-144889096D01*
X186428934Y-144991369D01*
X186428922Y-144991376D01*
X186424424Y-144993811D01*
X186420389Y-144996951D01*
X186420376Y-144996960D01*
X186250801Y-145128948D01*
X186250795Y-145128952D01*
X186246760Y-145132094D01*
X186243297Y-145135855D01*
X186243288Y-145135864D01*
X186097753Y-145293956D01*
X186097747Y-145293963D01*
X186094278Y-145297732D01*
X186091481Y-145302012D01*
X186091474Y-145302022D01*
X186003809Y-145436205D01*
X185959017Y-145477438D01*
X185900000Y-145492383D01*
X185840983Y-145477438D01*
X185796191Y-145436205D01*
X185708525Y-145302022D01*
X185708523Y-145302020D01*
X185705722Y-145297732D01*
X185670899Y-145259904D01*
X185556711Y-145135864D01*
X185556708Y-145135861D01*
X185553240Y-145132094D01*
X185444053Y-145047109D01*
X185379623Y-144996960D01*
X185379615Y-144996955D01*
X185375576Y-144993811D01*
X185371071Y-144991373D01*
X185371065Y-144991369D01*
X185182080Y-144889096D01*
X185182074Y-144889093D01*
X185177574Y-144886658D01*
X185172733Y-144884996D01*
X185172726Y-144884993D01*
X184969488Y-144815222D01*
X184969487Y-144815221D01*
X184964635Y-144813556D01*
X184959585Y-144812713D01*
X184959576Y-144812711D01*
X184747631Y-144777344D01*
X184747622Y-144777343D01*
X184742569Y-144776500D01*
X184517431Y-144776500D01*
X184512378Y-144777343D01*
X184512368Y-144777344D01*
X184300423Y-144812711D01*
X184300411Y-144812713D01*
X184295365Y-144813556D01*
X184290515Y-144815220D01*
X184290511Y-144815222D01*
X184087273Y-144884993D01*
X184087262Y-144884997D01*
X184082426Y-144886658D01*
X184077929Y-144889091D01*
X184077919Y-144889096D01*
X183888934Y-144991369D01*
X183888922Y-144991376D01*
X183884424Y-144993811D01*
X183880389Y-144996951D01*
X183880376Y-144996960D01*
X183710801Y-145128948D01*
X183710795Y-145128952D01*
X183706760Y-145132094D01*
X183703297Y-145135855D01*
X183703288Y-145135864D01*
X183557753Y-145293956D01*
X183557747Y-145293963D01*
X183554278Y-145297732D01*
X183551481Y-145302012D01*
X183551474Y-145302022D01*
X183463809Y-145436205D01*
X183419017Y-145477438D01*
X183360000Y-145492383D01*
X183300983Y-145477438D01*
X183256191Y-145436205D01*
X183168525Y-145302022D01*
X183168523Y-145302020D01*
X183165722Y-145297732D01*
X183130899Y-145259904D01*
X183016711Y-145135864D01*
X183016708Y-145135861D01*
X183013240Y-145132094D01*
X182904053Y-145047109D01*
X182839623Y-144996960D01*
X182839615Y-144996955D01*
X182835576Y-144993811D01*
X182831071Y-144991373D01*
X182831065Y-144991369D01*
X182642080Y-144889096D01*
X182642074Y-144889093D01*
X182637574Y-144886658D01*
X182632733Y-144884996D01*
X182632726Y-144884993D01*
X182429488Y-144815222D01*
X182429487Y-144815221D01*
X182424635Y-144813556D01*
X182419585Y-144812713D01*
X182419576Y-144812711D01*
X182207631Y-144777344D01*
X182207622Y-144777343D01*
X182202569Y-144776500D01*
X181977431Y-144776500D01*
X181972378Y-144777343D01*
X181972368Y-144777344D01*
X181760423Y-144812711D01*
X181760411Y-144812713D01*
X181755365Y-144813556D01*
X181750515Y-144815220D01*
X181750511Y-144815222D01*
X181547273Y-144884993D01*
X181547262Y-144884997D01*
X181542426Y-144886658D01*
X181537929Y-144889091D01*
X181537919Y-144889096D01*
X181348934Y-144991369D01*
X181348922Y-144991376D01*
X181344424Y-144993811D01*
X181340389Y-144996951D01*
X181340376Y-144996960D01*
X181170801Y-145128948D01*
X181170795Y-145128952D01*
X181166760Y-145132094D01*
X181163297Y-145135855D01*
X181163288Y-145135864D01*
X181017753Y-145293956D01*
X181017747Y-145293963D01*
X181014278Y-145297732D01*
X181011481Y-145302012D01*
X181011474Y-145302022D01*
X180923809Y-145436205D01*
X180879017Y-145477438D01*
X180820000Y-145492383D01*
X180760983Y-145477438D01*
X180716191Y-145436205D01*
X180628525Y-145302022D01*
X180628523Y-145302020D01*
X180625722Y-145297732D01*
X180590899Y-145259904D01*
X180476711Y-145135864D01*
X180476708Y-145135861D01*
X180473240Y-145132094D01*
X180364053Y-145047109D01*
X180299623Y-144996960D01*
X180299615Y-144996955D01*
X180295576Y-144993811D01*
X180291071Y-144991373D01*
X180291065Y-144991369D01*
X180102080Y-144889096D01*
X180102074Y-144889093D01*
X180097574Y-144886658D01*
X180092733Y-144884996D01*
X180092726Y-144884993D01*
X179889488Y-144815222D01*
X179889487Y-144815221D01*
X179884635Y-144813556D01*
X179879585Y-144812713D01*
X179879576Y-144812711D01*
X179667631Y-144777344D01*
X179667622Y-144777343D01*
X179662569Y-144776500D01*
X179437431Y-144776500D01*
X179432378Y-144777343D01*
X179432368Y-144777344D01*
X179220423Y-144812711D01*
X179220411Y-144812713D01*
X179215365Y-144813556D01*
X179210515Y-144815220D01*
X179210511Y-144815222D01*
X179007273Y-144884993D01*
X179007262Y-144884997D01*
X179002426Y-144886658D01*
X178997929Y-144889091D01*
X178997919Y-144889096D01*
X178808934Y-144991369D01*
X178808922Y-144991376D01*
X178804424Y-144993811D01*
X178800389Y-144996951D01*
X178800376Y-144996960D01*
X178630801Y-145128948D01*
X178630795Y-145128952D01*
X178626760Y-145132094D01*
X178623297Y-145135855D01*
X178623288Y-145135864D01*
X178477753Y-145293956D01*
X178477747Y-145293963D01*
X178474278Y-145297732D01*
X178471481Y-145302012D01*
X178471474Y-145302022D01*
X178383809Y-145436205D01*
X178339017Y-145477438D01*
X178280000Y-145492383D01*
X178220983Y-145477438D01*
X178176191Y-145436205D01*
X178088525Y-145302022D01*
X178088523Y-145302020D01*
X178085722Y-145297732D01*
X178050899Y-145259904D01*
X177936711Y-145135864D01*
X177936708Y-145135861D01*
X177933240Y-145132094D01*
X177824053Y-145047109D01*
X177759623Y-144996960D01*
X177759615Y-144996955D01*
X177755576Y-144993811D01*
X177751071Y-144991373D01*
X177751065Y-144991369D01*
X177562080Y-144889096D01*
X177562074Y-144889093D01*
X177557574Y-144886658D01*
X177552733Y-144884996D01*
X177552726Y-144884993D01*
X177349488Y-144815222D01*
X177349487Y-144815221D01*
X177344635Y-144813556D01*
X177339585Y-144812713D01*
X177339576Y-144812711D01*
X177127631Y-144777344D01*
X177127622Y-144777343D01*
X177122569Y-144776500D01*
X176897431Y-144776500D01*
X176892378Y-144777343D01*
X176892368Y-144777344D01*
X176680423Y-144812711D01*
X176680411Y-144812713D01*
X176675365Y-144813556D01*
X176670515Y-144815220D01*
X176670511Y-144815222D01*
X176467273Y-144884993D01*
X176467262Y-144884997D01*
X176462426Y-144886658D01*
X176457929Y-144889091D01*
X176457919Y-144889096D01*
X176268934Y-144991369D01*
X176268922Y-144991376D01*
X176264424Y-144993811D01*
X176260389Y-144996951D01*
X176260376Y-144996960D01*
X176090801Y-145128948D01*
X176090795Y-145128952D01*
X176086760Y-145132094D01*
X176083297Y-145135855D01*
X176083288Y-145135864D01*
X175937753Y-145293956D01*
X175937747Y-145293963D01*
X175934278Y-145297732D01*
X175931481Y-145302012D01*
X175931474Y-145302022D01*
X175843809Y-145436205D01*
X175799017Y-145477438D01*
X175740000Y-145492383D01*
X175680983Y-145477438D01*
X175636191Y-145436205D01*
X175548525Y-145302022D01*
X175548523Y-145302020D01*
X175545722Y-145297732D01*
X175510899Y-145259904D01*
X175396711Y-145135864D01*
X175396708Y-145135861D01*
X175393240Y-145132094D01*
X175284053Y-145047109D01*
X175219623Y-144996960D01*
X175219615Y-144996955D01*
X175215576Y-144993811D01*
X175211071Y-144991373D01*
X175211065Y-144991369D01*
X175022080Y-144889096D01*
X175022074Y-144889093D01*
X175017574Y-144886658D01*
X175012733Y-144884996D01*
X175012726Y-144884993D01*
X174809488Y-144815222D01*
X174809487Y-144815221D01*
X174804635Y-144813556D01*
X174799585Y-144812713D01*
X174799576Y-144812711D01*
X174587631Y-144777344D01*
X174587622Y-144777343D01*
X174582569Y-144776500D01*
X174357431Y-144776500D01*
X174352378Y-144777343D01*
X174352368Y-144777344D01*
X174140423Y-144812711D01*
X174140411Y-144812713D01*
X174135365Y-144813556D01*
X174130515Y-144815220D01*
X174130511Y-144815222D01*
X173927273Y-144884993D01*
X173927262Y-144884997D01*
X173922426Y-144886658D01*
X173917929Y-144889091D01*
X173917919Y-144889096D01*
X173728934Y-144991369D01*
X173728922Y-144991376D01*
X173724424Y-144993811D01*
X173720389Y-144996951D01*
X173720376Y-144996960D01*
X173550801Y-145128948D01*
X173550795Y-145128952D01*
X173546760Y-145132094D01*
X173543297Y-145135855D01*
X173543288Y-145135864D01*
X173397753Y-145293956D01*
X173397747Y-145293963D01*
X173394278Y-145297732D01*
X173391481Y-145302012D01*
X173391474Y-145302022D01*
X173303809Y-145436205D01*
X173259017Y-145477438D01*
X173200000Y-145492383D01*
X173140983Y-145477438D01*
X173096191Y-145436205D01*
X173008525Y-145302022D01*
X173008523Y-145302020D01*
X173005722Y-145297732D01*
X172970899Y-145259904D01*
X172856711Y-145135864D01*
X172856708Y-145135861D01*
X172853240Y-145132094D01*
X172744053Y-145047109D01*
X172679623Y-144996960D01*
X172679615Y-144996955D01*
X172675576Y-144993811D01*
X172671071Y-144991373D01*
X172671065Y-144991369D01*
X172482080Y-144889096D01*
X172482074Y-144889093D01*
X172477574Y-144886658D01*
X172472733Y-144884996D01*
X172472726Y-144884993D01*
X172269488Y-144815222D01*
X172269487Y-144815221D01*
X172264635Y-144813556D01*
X172259585Y-144812713D01*
X172259576Y-144812711D01*
X172047631Y-144777344D01*
X172047622Y-144777343D01*
X172042569Y-144776500D01*
X171817431Y-144776500D01*
X171812378Y-144777343D01*
X171812368Y-144777344D01*
X171600423Y-144812711D01*
X171600411Y-144812713D01*
X171595365Y-144813556D01*
X171590515Y-144815220D01*
X171590511Y-144815222D01*
X171387273Y-144884993D01*
X171387262Y-144884997D01*
X171382426Y-144886658D01*
X171377929Y-144889091D01*
X171377919Y-144889096D01*
X171188934Y-144991369D01*
X171188922Y-144991376D01*
X171184424Y-144993811D01*
X171180389Y-144996951D01*
X171180376Y-144996960D01*
X171010801Y-145128948D01*
X171010795Y-145128952D01*
X171006760Y-145132094D01*
X171003297Y-145135855D01*
X171003288Y-145135864D01*
X170857753Y-145293956D01*
X170857747Y-145293963D01*
X170854278Y-145297732D01*
X170851481Y-145302012D01*
X170851474Y-145302022D01*
X170736870Y-145477438D01*
X170731140Y-145486209D01*
X170729085Y-145490892D01*
X170729080Y-145490903D01*
X170665198Y-145636542D01*
X170640704Y-145692384D01*
X170639446Y-145697349D01*
X170639445Y-145697354D01*
X170586695Y-145905657D01*
X170586693Y-145905666D01*
X170585436Y-145910632D01*
X170585012Y-145915741D01*
X170585011Y-145915751D01*
X170578851Y-145990095D01*
X170566844Y-146135000D01*
X164991932Y-146135000D01*
X164989164Y-143882938D01*
X196917200Y-143882938D01*
X196923711Y-143943501D01*
X196926417Y-143950758D01*
X196926419Y-143950763D01*
X196971711Y-144072194D01*
X196974811Y-144080504D01*
X197062439Y-144197561D01*
X197179496Y-144285189D01*
X197316499Y-144336289D01*
X197377062Y-144342800D01*
X197380372Y-144342800D01*
X197434804Y-144342800D01*
X197494921Y-144358347D01*
X197539962Y-144401091D01*
X197558634Y-144460311D01*
X197546254Y-144521159D01*
X197505926Y-144568376D01*
X197497053Y-144574588D01*
X197489620Y-144582699D01*
X197495531Y-144591978D01*
X198163457Y-145259904D01*
X198174999Y-145266568D01*
X198186542Y-145259904D01*
X198854467Y-144591978D01*
X198860378Y-144582700D01*
X198852944Y-144574587D01*
X198844073Y-144568376D01*
X198803745Y-144521159D01*
X198791365Y-144460311D01*
X198810037Y-144401091D01*
X198855078Y-144358347D01*
X198915195Y-144342800D01*
X198969628Y-144342800D01*
X198972938Y-144342800D01*
X199033501Y-144336289D01*
X199170504Y-144285189D01*
X199287561Y-144197561D01*
X199375189Y-144080504D01*
X199426289Y-143943501D01*
X199432800Y-143882938D01*
X199432800Y-142287062D01*
X199426289Y-142226499D01*
X199375189Y-142089496D01*
X199287561Y-141972439D01*
X199170504Y-141884811D01*
X199162196Y-141881712D01*
X199162194Y-141881711D01*
X199040763Y-141836419D01*
X199040758Y-141836417D01*
X199033501Y-141833711D01*
X199025797Y-141832882D01*
X199025794Y-141832882D01*
X198976224Y-141827553D01*
X198976218Y-141827552D01*
X198972938Y-141827200D01*
X197377062Y-141827200D01*
X197373782Y-141827552D01*
X197373775Y-141827553D01*
X197324205Y-141832882D01*
X197324200Y-141832882D01*
X197316499Y-141833711D01*
X197309243Y-141836417D01*
X197309236Y-141836419D01*
X197187805Y-141881711D01*
X197187799Y-141881713D01*
X197179496Y-141884811D01*
X197172398Y-141890123D01*
X197172395Y-141890126D01*
X197069535Y-141967126D01*
X197069531Y-141967129D01*
X197062439Y-141972439D01*
X197057129Y-141979531D01*
X197057126Y-141979535D01*
X196980126Y-142082395D01*
X196980123Y-142082398D01*
X196974811Y-142089496D01*
X196971713Y-142097799D01*
X196971711Y-142097805D01*
X196926419Y-142219236D01*
X196926417Y-142219243D01*
X196923711Y-142226499D01*
X196922882Y-142234200D01*
X196922882Y-142234205D01*
X196917553Y-142283775D01*
X196917200Y-142287062D01*
X196917200Y-143882938D01*
X164989164Y-143882938D01*
X164980840Y-137110000D01*
X207756709Y-137110000D01*
X207775845Y-137365353D01*
X207776874Y-137369862D01*
X207776876Y-137369874D01*
X207831793Y-137610476D01*
X207832826Y-137615001D01*
X207834521Y-137619320D01*
X207834522Y-137619323D01*
X207924680Y-137849044D01*
X207924683Y-137849050D01*
X207926378Y-137853369D01*
X207928696Y-137857384D01*
X207928699Y-137857390D01*
X208052092Y-138071112D01*
X208052096Y-138071117D01*
X208054413Y-138075131D01*
X208214069Y-138275334D01*
X208401781Y-138449505D01*
X208613355Y-138593754D01*
X208844065Y-138704858D01*
X209088757Y-138780335D01*
X209341966Y-138818500D01*
X209593397Y-138818500D01*
X209598034Y-138818500D01*
X209851243Y-138780335D01*
X210095935Y-138704858D01*
X210326646Y-138593754D01*
X210538219Y-138449505D01*
X210725931Y-138275334D01*
X210885587Y-138075131D01*
X211013622Y-137853369D01*
X211107174Y-137615001D01*
X211164155Y-137365353D01*
X211183291Y-137110000D01*
X211164155Y-136854647D01*
X211107174Y-136604999D01*
X211013622Y-136366631D01*
X210885587Y-136144869D01*
X210725931Y-135944666D01*
X210538219Y-135770495D01*
X210534385Y-135767881D01*
X210330482Y-135628861D01*
X210330478Y-135628859D01*
X210326646Y-135626246D01*
X210322460Y-135624230D01*
X210100118Y-135517156D01*
X210100113Y-135517154D01*
X210095935Y-135515142D01*
X210091502Y-135513774D01*
X210091498Y-135513773D01*
X209855678Y-135441033D01*
X209855677Y-135441032D01*
X209851243Y-135439665D01*
X209846655Y-135438973D01*
X209846653Y-135438973D01*
X209602619Y-135402191D01*
X209602618Y-135402190D01*
X209598034Y-135401500D01*
X209341966Y-135401500D01*
X209337382Y-135402190D01*
X209337380Y-135402191D01*
X209093346Y-135438973D01*
X209093341Y-135438973D01*
X209088757Y-135439665D01*
X209084324Y-135441032D01*
X209084321Y-135441033D01*
X208848502Y-135513773D01*
X208848497Y-135513774D01*
X208844065Y-135515142D01*
X208839886Y-135517154D01*
X208839882Y-135517156D01*
X208617540Y-135624230D01*
X208617533Y-135624233D01*
X208613355Y-135626246D01*
X208609522Y-135628859D01*
X208609519Y-135628861D01*
X208405615Y-135767881D01*
X208401781Y-135770495D01*
X208398389Y-135773641D01*
X208398383Y-135773647D01*
X208217470Y-135941510D01*
X208214069Y-135944666D01*
X208211180Y-135948288D01*
X208211176Y-135948293D01*
X208057305Y-136141242D01*
X208054413Y-136144869D01*
X208052099Y-136148875D01*
X208052092Y-136148887D01*
X207928699Y-136362609D01*
X207928693Y-136362620D01*
X207926378Y-136366631D01*
X207924685Y-136370944D01*
X207924680Y-136370955D01*
X207834522Y-136600676D01*
X207834519Y-136600683D01*
X207832826Y-136604999D01*
X207831794Y-136609517D01*
X207831793Y-136609523D01*
X207776876Y-136850125D01*
X207776873Y-136850139D01*
X207775845Y-136854647D01*
X207756709Y-137110000D01*
X164980840Y-137110000D01*
X164974681Y-132098638D01*
X197061500Y-132098638D01*
X197068011Y-132159201D01*
X197070717Y-132166458D01*
X197070719Y-132166463D01*
X197116011Y-132287894D01*
X197119111Y-132296204D01*
X197124425Y-132303303D01*
X197124426Y-132303304D01*
X197134262Y-132316444D01*
X197206739Y-132413261D01*
X197323796Y-132500889D01*
X197460799Y-132551989D01*
X197521362Y-132558500D01*
X199815328Y-132558500D01*
X199818638Y-132558500D01*
X199879201Y-132551989D01*
X200016204Y-132500889D01*
X200133261Y-132413261D01*
X200220889Y-132296204D01*
X200271989Y-132159201D01*
X200278500Y-132098638D01*
X200278500Y-129801362D01*
X200271989Y-129740799D01*
X200220889Y-129603796D01*
X200133261Y-129486739D01*
X200016204Y-129399111D01*
X200007896Y-129396012D01*
X200007894Y-129396011D01*
X199886463Y-129350719D01*
X199886458Y-129350717D01*
X199879201Y-129348011D01*
X199871497Y-129347182D01*
X199871494Y-129347182D01*
X199821924Y-129341853D01*
X199821918Y-129341852D01*
X199818638Y-129341500D01*
X197521362Y-129341500D01*
X197518082Y-129341852D01*
X197518075Y-129341853D01*
X197468505Y-129347182D01*
X197468500Y-129347182D01*
X197460799Y-129348011D01*
X197453543Y-129350717D01*
X197453536Y-129350719D01*
X197332105Y-129396011D01*
X197332099Y-129396013D01*
X197323796Y-129399111D01*
X197316698Y-129404423D01*
X197316695Y-129404426D01*
X197213835Y-129481426D01*
X197213831Y-129481429D01*
X197206739Y-129486739D01*
X197201429Y-129493831D01*
X197201426Y-129493835D01*
X197124426Y-129596695D01*
X197124423Y-129596698D01*
X197119111Y-129603796D01*
X197116013Y-129612099D01*
X197116011Y-129612105D01*
X197070719Y-129733536D01*
X197070717Y-129733543D01*
X197068011Y-129740799D01*
X197067182Y-129748500D01*
X197067182Y-129748505D01*
X197062953Y-129787844D01*
X197061500Y-129801362D01*
X197061500Y-132098638D01*
X164974681Y-132098638D01*
X164974164Y-131677784D01*
X164972993Y-130725000D01*
X193286496Y-130725000D01*
X193287175Y-130731460D01*
X193305778Y-130908467D01*
X193305779Y-130908475D01*
X193306458Y-130914928D01*
X193308463Y-130921100D01*
X193308465Y-130921107D01*
X193363465Y-131090377D01*
X193365473Y-131096556D01*
X193368720Y-131102180D01*
X193368721Y-131102182D01*
X193436378Y-131219368D01*
X193460960Y-131261944D01*
X193588747Y-131403866D01*
X193593997Y-131407680D01*
X193594000Y-131407683D01*
X193641663Y-131442312D01*
X193743248Y-131516118D01*
X193917712Y-131593794D01*
X193924070Y-131595145D01*
X193924072Y-131595146D01*
X193960874Y-131602968D01*
X194104513Y-131633500D01*
X194288984Y-131633500D01*
X194295487Y-131633500D01*
X194482288Y-131593794D01*
X194656752Y-131516118D01*
X194811253Y-131403866D01*
X194939040Y-131261944D01*
X195034527Y-131096556D01*
X195093542Y-130914928D01*
X195113504Y-130725000D01*
X195093542Y-130535072D01*
X195034527Y-130353444D01*
X194939040Y-130188056D01*
X194840349Y-130078448D01*
X194816736Y-130039916D01*
X194808500Y-129995478D01*
X194808500Y-123330000D01*
X197056526Y-123330000D01*
X197076391Y-123582403D01*
X197077526Y-123587132D01*
X197077527Y-123587136D01*
X197134357Y-123823854D01*
X197134359Y-123823862D01*
X197135495Y-123828591D01*
X197232384Y-124062502D01*
X197234931Y-124066659D01*
X197234932Y-124066660D01*
X197362125Y-124274221D01*
X197362130Y-124274228D01*
X197364672Y-124278376D01*
X197367831Y-124282075D01*
X197367835Y-124282080D01*
X197525941Y-124467197D01*
X197529102Y-124470898D01*
X197532802Y-124474058D01*
X197659366Y-124582155D01*
X197721624Y-124635328D01*
X197725774Y-124637871D01*
X197725778Y-124637874D01*
X197765320Y-124662105D01*
X197937498Y-124767616D01*
X198171409Y-124864505D01*
X198417597Y-124923609D01*
X198670000Y-124943474D01*
X198786591Y-124934297D01*
X198839237Y-124941579D01*
X198884000Y-124970234D01*
X205582534Y-131668768D01*
X205590706Y-131677784D01*
X205618432Y-131711568D01*
X205771996Y-131837595D01*
X205947196Y-131931241D01*
X205951871Y-131932659D01*
X206137299Y-131988909D01*
X206335000Y-132008380D01*
X206378488Y-132004096D01*
X206390642Y-132003500D01*
X206456377Y-132003500D01*
X206496640Y-132010219D01*
X206532541Y-132029647D01*
X206669424Y-132136189D01*
X206673931Y-132138628D01*
X206673934Y-132138630D01*
X206862919Y-132240903D01*
X206867426Y-132243342D01*
X207080365Y-132316444D01*
X207302431Y-132353500D01*
X207522436Y-132353500D01*
X207527569Y-132353500D01*
X207749635Y-132316444D01*
X207962574Y-132243342D01*
X208160576Y-132136189D01*
X208338240Y-131997906D01*
X208490722Y-131832268D01*
X208613860Y-131643791D01*
X208704296Y-131437616D01*
X208759564Y-131219368D01*
X208778156Y-130995000D01*
X208759564Y-130770632D01*
X208704296Y-130552384D01*
X208613860Y-130346209D01*
X208490722Y-130157732D01*
X208338240Y-129992094D01*
X208325597Y-129982253D01*
X208164623Y-129856960D01*
X208164615Y-129856955D01*
X208160576Y-129853811D01*
X208156071Y-129851373D01*
X208156065Y-129851369D01*
X208117305Y-129830394D01*
X208071665Y-129787844D01*
X208052526Y-129728454D01*
X208064734Y-129667263D01*
X208105198Y-129619764D01*
X208281643Y-129496215D01*
X208289909Y-129489278D01*
X208449278Y-129329909D01*
X208456215Y-129321643D01*
X208585498Y-129137008D01*
X208590886Y-129127676D01*
X208686143Y-128923397D01*
X208689831Y-128913263D01*
X208741943Y-128718780D01*
X208742311Y-128707551D01*
X208731369Y-128705000D01*
X206098631Y-128705000D01*
X206087688Y-128707551D01*
X206088056Y-128718780D01*
X206140168Y-128913263D01*
X206143856Y-128923397D01*
X206239113Y-129127676D01*
X206239736Y-129128754D01*
X206239935Y-129129438D01*
X206241400Y-129132579D01*
X206240916Y-129132804D01*
X206256230Y-129185345D01*
X206244729Y-129243158D01*
X206207833Y-129289129D01*
X206153880Y-129312868D01*
X206095060Y-129309013D01*
X206044667Y-129278433D01*
X204968682Y-128202448D01*
X206087688Y-128202448D01*
X206098631Y-128205000D01*
X207148674Y-128205000D01*
X207161549Y-128201549D01*
X207165000Y-128188674D01*
X207165000Y-126181326D01*
X207161549Y-126168450D01*
X207148674Y-126165000D01*
X206098631Y-126165000D01*
X206087688Y-126167551D01*
X206088056Y-126178780D01*
X206140168Y-126373263D01*
X206143856Y-126383397D01*
X206239113Y-126587676D01*
X206244501Y-126597008D01*
X206373784Y-126781643D01*
X206380721Y-126789909D01*
X206540090Y-126949278D01*
X206548356Y-126956215D01*
X206730031Y-127083425D01*
X206768896Y-127127743D01*
X206782907Y-127185000D01*
X206768896Y-127242257D01*
X206730031Y-127286575D01*
X206548352Y-127413788D01*
X206540092Y-127420719D01*
X206380719Y-127580092D01*
X206373784Y-127588357D01*
X206244508Y-127772982D01*
X206239110Y-127782332D01*
X206143856Y-127986602D01*
X206140168Y-127996736D01*
X206088056Y-128191219D01*
X206087688Y-128202448D01*
X204968682Y-128202448D01*
X200310234Y-123544000D01*
X200281579Y-123499237D01*
X200274297Y-123446589D01*
X200279932Y-123375000D01*
X206051844Y-123375000D01*
X206052268Y-123380117D01*
X206070011Y-123594248D01*
X206070012Y-123594256D01*
X206070436Y-123599368D01*
X206071693Y-123604335D01*
X206071695Y-123604342D01*
X206124445Y-123812645D01*
X206125704Y-123817616D01*
X206127764Y-123822312D01*
X206214080Y-124019096D01*
X206214083Y-124019101D01*
X206216140Y-124023791D01*
X206238488Y-124057997D01*
X206336474Y-124207977D01*
X206336477Y-124207981D01*
X206339278Y-124212268D01*
X206342752Y-124216041D01*
X206342753Y-124216043D01*
X206488288Y-124374135D01*
X206488291Y-124374138D01*
X206491760Y-124377906D01*
X206509679Y-124391853D01*
X206665376Y-124513039D01*
X206665381Y-124513042D01*
X206669424Y-124516189D01*
X206697580Y-124531426D01*
X206712695Y-124539606D01*
X206758335Y-124582155D01*
X206777475Y-124641545D01*
X206765267Y-124702737D01*
X206724803Y-124750236D01*
X206548352Y-124873788D01*
X206540092Y-124880719D01*
X206380719Y-125040092D01*
X206373784Y-125048357D01*
X206244508Y-125232982D01*
X206239110Y-125242332D01*
X206143856Y-125446602D01*
X206140168Y-125456736D01*
X206088056Y-125651219D01*
X206087688Y-125662448D01*
X206098631Y-125665000D01*
X207541000Y-125665000D01*
X207603000Y-125681613D01*
X207648387Y-125727000D01*
X207665000Y-125789000D01*
X207665000Y-128188674D01*
X207668450Y-128201549D01*
X207681326Y-128205000D01*
X208731369Y-128205000D01*
X208742311Y-128202448D01*
X208741943Y-128191219D01*
X208689831Y-127996736D01*
X208686143Y-127986602D01*
X208590889Y-127782332D01*
X208585491Y-127772982D01*
X208456215Y-127588357D01*
X208449280Y-127580092D01*
X208289909Y-127420721D01*
X208281643Y-127413784D01*
X208099969Y-127286575D01*
X208061104Y-127242257D01*
X208047093Y-127185000D01*
X208061104Y-127127743D01*
X208099969Y-127083425D01*
X208281643Y-126956215D01*
X208289909Y-126949278D01*
X208449278Y-126789909D01*
X208456215Y-126781643D01*
X208585498Y-126597008D01*
X208590886Y-126587676D01*
X208686143Y-126383397D01*
X208689833Y-126373259D01*
X208697049Y-126346328D01*
X208729142Y-126290740D01*
X208784729Y-126258645D01*
X208848917Y-126258645D01*
X208904505Y-126290739D01*
X220397534Y-137783768D01*
X220405706Y-137792784D01*
X220433432Y-137826568D01*
X220542293Y-137915908D01*
X220586996Y-137952595D01*
X220762196Y-138046241D01*
X220952299Y-138103908D01*
X221150000Y-138123380D01*
X221156061Y-138122783D01*
X221193486Y-138119097D01*
X221205640Y-138118500D01*
X223269284Y-138118500D01*
X223323086Y-138130780D01*
X223366231Y-138165188D01*
X223454069Y-138275334D01*
X223641781Y-138449505D01*
X223853355Y-138593754D01*
X224084065Y-138704858D01*
X224328757Y-138780335D01*
X224581966Y-138818500D01*
X224833397Y-138818500D01*
X224838034Y-138818500D01*
X225091243Y-138780335D01*
X225335935Y-138704858D01*
X225566646Y-138593754D01*
X225778219Y-138449505D01*
X225965931Y-138275334D01*
X226125587Y-138075131D01*
X226253622Y-137853369D01*
X226347174Y-137615001D01*
X226404155Y-137365353D01*
X226423291Y-137110000D01*
X226404155Y-136854647D01*
X226347174Y-136604999D01*
X226253622Y-136366631D01*
X226125587Y-136144869D01*
X225965931Y-135944666D01*
X225778219Y-135770495D01*
X225774385Y-135767881D01*
X225570482Y-135628861D01*
X225570478Y-135628859D01*
X225566646Y-135626246D01*
X225562460Y-135624230D01*
X225340118Y-135517156D01*
X225340113Y-135517154D01*
X225335935Y-135515142D01*
X225331502Y-135513774D01*
X225331498Y-135513773D01*
X225095678Y-135441033D01*
X225095677Y-135441032D01*
X225091243Y-135439665D01*
X225086655Y-135438973D01*
X225086653Y-135438973D01*
X224842619Y-135402191D01*
X224842618Y-135402190D01*
X224838034Y-135401500D01*
X224581966Y-135401500D01*
X224577382Y-135402190D01*
X224577380Y-135402191D01*
X224333346Y-135438973D01*
X224333341Y-135438973D01*
X224328757Y-135439665D01*
X224324324Y-135441032D01*
X224324321Y-135441033D01*
X224088502Y-135513773D01*
X224088497Y-135513774D01*
X224084065Y-135515142D01*
X224079886Y-135517154D01*
X224079882Y-135517156D01*
X223857540Y-135624230D01*
X223857533Y-135624233D01*
X223853355Y-135626246D01*
X223849522Y-135628859D01*
X223849519Y-135628861D01*
X223645615Y-135767881D01*
X223641781Y-135770495D01*
X223638389Y-135773641D01*
X223638383Y-135773647D01*
X223457466Y-135941513D01*
X223457459Y-135941520D01*
X223454069Y-135944666D01*
X223451180Y-135948288D01*
X223451176Y-135948293D01*
X223366231Y-136054812D01*
X223323086Y-136089220D01*
X223269284Y-136101500D01*
X221619096Y-136101500D01*
X221571643Y-136092061D01*
X221531415Y-136065181D01*
X208804598Y-123338364D01*
X208779777Y-123302829D01*
X208768702Y-123260922D01*
X208759987Y-123155741D01*
X208759564Y-123150632D01*
X208704296Y-122932384D01*
X208613860Y-122726209D01*
X208490722Y-122537732D01*
X208456268Y-122500305D01*
X208431983Y-122461402D01*
X208423500Y-122416326D01*
X208423500Y-121793674D01*
X208431983Y-121748598D01*
X208456268Y-121709694D01*
X208490722Y-121672268D01*
X208613860Y-121483791D01*
X208704296Y-121277616D01*
X208759564Y-121059368D01*
X208778156Y-120835000D01*
X208759564Y-120610632D01*
X208704296Y-120392384D01*
X208613860Y-120186209D01*
X208490722Y-119997732D01*
X208445053Y-119948123D01*
X208341711Y-119835864D01*
X208341708Y-119835861D01*
X208338240Y-119832094D01*
X208325597Y-119822253D01*
X208164623Y-119696960D01*
X208164615Y-119696955D01*
X208160576Y-119693811D01*
X208156071Y-119691373D01*
X208156065Y-119691369D01*
X208117305Y-119670394D01*
X208071665Y-119627844D01*
X208052526Y-119568454D01*
X208064734Y-119507263D01*
X208105198Y-119459764D01*
X208281643Y-119336215D01*
X208289909Y-119329278D01*
X208449278Y-119169909D01*
X208456215Y-119161643D01*
X208585498Y-118977008D01*
X208590886Y-118967676D01*
X208686143Y-118763397D01*
X208689831Y-118753263D01*
X208741943Y-118558780D01*
X208742311Y-118547551D01*
X208731369Y-118545000D01*
X206098631Y-118545000D01*
X206087688Y-118547551D01*
X206088056Y-118558780D01*
X206140168Y-118753263D01*
X206143856Y-118763397D01*
X206239113Y-118967676D01*
X206244501Y-118977008D01*
X206373784Y-119161643D01*
X206380721Y-119169909D01*
X206540090Y-119329278D01*
X206548356Y-119336215D01*
X206724801Y-119459764D01*
X206765264Y-119507263D01*
X206777473Y-119568454D01*
X206758334Y-119627844D01*
X206712695Y-119670393D01*
X206673939Y-119691366D01*
X206673924Y-119691375D01*
X206669424Y-119693811D01*
X206665389Y-119696951D01*
X206665376Y-119696960D01*
X206495801Y-119828948D01*
X206495795Y-119828952D01*
X206491760Y-119832094D01*
X206488297Y-119835855D01*
X206488288Y-119835864D01*
X206342753Y-119993956D01*
X206342747Y-119993963D01*
X206339278Y-119997732D01*
X206336481Y-120002012D01*
X206336474Y-120002022D01*
X206218942Y-120181920D01*
X206216140Y-120186209D01*
X206214085Y-120190892D01*
X206214080Y-120190903D01*
X206127764Y-120387687D01*
X206125704Y-120392384D01*
X206124446Y-120397349D01*
X206124445Y-120397354D01*
X206071695Y-120605657D01*
X206071693Y-120605666D01*
X206070436Y-120610632D01*
X206070012Y-120615741D01*
X206070011Y-120615751D01*
X206052268Y-120829883D01*
X206051844Y-120835000D01*
X206052268Y-120840117D01*
X206070011Y-121054248D01*
X206070012Y-121054256D01*
X206070436Y-121059368D01*
X206071693Y-121064335D01*
X206071695Y-121064342D01*
X206124445Y-121272645D01*
X206125704Y-121277616D01*
X206127764Y-121282312D01*
X206214080Y-121479096D01*
X206214083Y-121479101D01*
X206216140Y-121483791D01*
X206275505Y-121574656D01*
X206336474Y-121667977D01*
X206336477Y-121667981D01*
X206339278Y-121672268D01*
X206373731Y-121709694D01*
X206398017Y-121748598D01*
X206406500Y-121793674D01*
X206406500Y-122416326D01*
X206398017Y-122461402D01*
X206373731Y-122500305D01*
X206339278Y-122537732D01*
X206336481Y-122542012D01*
X206336474Y-122542022D01*
X206297288Y-122602002D01*
X206216140Y-122726209D01*
X206214085Y-122730892D01*
X206214080Y-122730903D01*
X206127764Y-122927687D01*
X206125704Y-122932384D01*
X206124446Y-122937349D01*
X206124445Y-122937354D01*
X206071695Y-123145657D01*
X206071693Y-123145666D01*
X206070436Y-123150632D01*
X206070012Y-123155741D01*
X206070011Y-123155751D01*
X206061297Y-123260922D01*
X206051844Y-123375000D01*
X200279932Y-123375000D01*
X200283092Y-123334853D01*
X200283474Y-123330000D01*
X200263609Y-123077597D01*
X200204505Y-122831409D01*
X200107616Y-122597498D01*
X200024216Y-122461402D01*
X199977874Y-122385778D01*
X199977871Y-122385774D01*
X199975328Y-122381624D01*
X199810898Y-122189102D01*
X199807197Y-122185941D01*
X199622080Y-122027835D01*
X199622075Y-122027831D01*
X199618376Y-122024672D01*
X199614228Y-122022130D01*
X199614221Y-122022125D01*
X199406660Y-121894932D01*
X199406659Y-121894931D01*
X199402502Y-121892384D01*
X199168591Y-121795495D01*
X199163862Y-121794359D01*
X199163854Y-121794357D01*
X198927136Y-121737527D01*
X198927132Y-121737526D01*
X198922403Y-121736391D01*
X198917550Y-121736009D01*
X198674854Y-121716908D01*
X198670000Y-121716526D01*
X198665146Y-121716908D01*
X198422449Y-121736009D01*
X198422447Y-121736009D01*
X198417597Y-121736391D01*
X198412869Y-121737525D01*
X198412863Y-121737527D01*
X198176145Y-121794357D01*
X198176133Y-121794360D01*
X198171409Y-121795495D01*
X198166912Y-121797357D01*
X198166908Y-121797359D01*
X197942002Y-121890518D01*
X197941997Y-121890520D01*
X197937498Y-121892384D01*
X197933345Y-121894928D01*
X197933339Y-121894932D01*
X197725778Y-122022125D01*
X197725765Y-122022134D01*
X197721624Y-122024672D01*
X197717929Y-122027827D01*
X197717919Y-122027835D01*
X197532802Y-122185941D01*
X197532795Y-122185947D01*
X197529102Y-122189102D01*
X197525947Y-122192795D01*
X197525941Y-122192802D01*
X197367835Y-122377919D01*
X197367827Y-122377929D01*
X197364672Y-122381624D01*
X197362134Y-122385765D01*
X197362125Y-122385778D01*
X197234932Y-122593339D01*
X197234928Y-122593345D01*
X197232384Y-122597498D01*
X197230520Y-122601997D01*
X197230518Y-122602002D01*
X197179070Y-122726209D01*
X197135495Y-122831409D01*
X197134360Y-122836133D01*
X197134357Y-122836145D01*
X197077527Y-123072863D01*
X197077525Y-123072869D01*
X197076391Y-123077597D01*
X197056526Y-123330000D01*
X194808500Y-123330000D01*
X194808500Y-110829522D01*
X194816736Y-110785084D01*
X194840350Y-110746550D01*
X194939040Y-110636944D01*
X195034527Y-110471556D01*
X195093542Y-110289928D01*
X195113504Y-110100000D01*
X195093542Y-109910072D01*
X195034527Y-109728444D01*
X194939040Y-109563056D01*
X194811253Y-109421134D01*
X194806003Y-109417319D01*
X194805999Y-109417316D01*
X194662006Y-109312699D01*
X194662004Y-109312697D01*
X194656752Y-109308882D01*
X194650821Y-109306241D01*
X194650817Y-109306239D01*
X194488226Y-109233849D01*
X194488219Y-109233846D01*
X194482288Y-109231206D01*
X194475935Y-109229855D01*
X194475927Y-109229853D01*
X194301849Y-109192852D01*
X194301846Y-109192851D01*
X194295487Y-109191500D01*
X194104513Y-109191500D01*
X194098154Y-109192851D01*
X194098150Y-109192852D01*
X193924072Y-109229853D01*
X193924061Y-109229856D01*
X193917712Y-109231206D01*
X193911782Y-109233845D01*
X193911773Y-109233849D01*
X193749182Y-109306239D01*
X193749174Y-109306243D01*
X193743248Y-109308882D01*
X193737999Y-109312695D01*
X193737993Y-109312699D01*
X193594000Y-109417316D01*
X193593991Y-109417323D01*
X193588747Y-109421134D01*
X193584403Y-109425957D01*
X193584400Y-109425961D01*
X193465307Y-109558228D01*
X193460960Y-109563056D01*
X193457714Y-109568676D01*
X193457711Y-109568682D01*
X193368721Y-109722817D01*
X193368718Y-109722822D01*
X193365473Y-109728444D01*
X193363467Y-109734616D01*
X193363465Y-109734622D01*
X193308465Y-109903892D01*
X193308463Y-109903901D01*
X193306458Y-109910072D01*
X193305780Y-109916522D01*
X193305778Y-109916532D01*
X193298466Y-109986107D01*
X193286496Y-110100000D01*
X193287175Y-110106460D01*
X193305778Y-110283467D01*
X193305779Y-110283475D01*
X193306458Y-110289928D01*
X193308463Y-110296100D01*
X193308465Y-110296107D01*
X193363465Y-110465377D01*
X193365473Y-110471556D01*
X193368720Y-110477180D01*
X193368721Y-110477182D01*
X193381853Y-110499928D01*
X193460960Y-110636944D01*
X193465304Y-110641769D01*
X193465306Y-110641771D01*
X193559650Y-110746550D01*
X193583264Y-110785084D01*
X193591500Y-110829522D01*
X193591500Y-129995478D01*
X193583264Y-130039916D01*
X193559650Y-130078450D01*
X193465306Y-130183228D01*
X193465301Y-130183234D01*
X193460960Y-130188056D01*
X193457714Y-130193676D01*
X193457711Y-130193682D01*
X193368721Y-130347817D01*
X193368718Y-130347822D01*
X193365473Y-130353444D01*
X193363467Y-130359616D01*
X193363465Y-130359622D01*
X193308465Y-130528892D01*
X193308463Y-130528901D01*
X193306458Y-130535072D01*
X193305780Y-130541522D01*
X193305778Y-130541532D01*
X193287778Y-130712795D01*
X193286496Y-130725000D01*
X164972993Y-130725000D01*
X164935538Y-100250000D01*
X165666496Y-100250000D01*
X165667175Y-100256460D01*
X165685778Y-100433467D01*
X165685779Y-100433475D01*
X165686458Y-100439928D01*
X165688463Y-100446100D01*
X165688465Y-100446107D01*
X165735770Y-100591694D01*
X165745473Y-100621556D01*
X165748720Y-100627180D01*
X165748721Y-100627182D01*
X165829294Y-100766739D01*
X165840960Y-100786944D01*
X165968747Y-100928866D01*
X165974005Y-100932686D01*
X165974006Y-100932687D01*
X166018118Y-100964736D01*
X166045567Y-100992190D01*
X166046506Y-100993483D01*
X166052903Y-101003225D01*
X166071483Y-101034642D01*
X166071486Y-101034646D01*
X166075458Y-101041362D01*
X166080976Y-101046879D01*
X166080976Y-101046880D01*
X166089889Y-101055793D01*
X166102525Y-101070588D01*
X166109938Y-101080791D01*
X166109943Y-101080796D01*
X166114528Y-101087107D01*
X166148667Y-101115349D01*
X166157308Y-101123212D01*
X167805181Y-102771085D01*
X167832061Y-102811313D01*
X167841500Y-102858766D01*
X167841500Y-126923243D01*
X167833264Y-126967681D01*
X167809650Y-127006214D01*
X167735960Y-127088056D01*
X167732714Y-127093676D01*
X167732711Y-127093682D01*
X167643721Y-127247817D01*
X167643718Y-127247822D01*
X167640473Y-127253444D01*
X167638467Y-127259616D01*
X167638465Y-127259622D01*
X167583465Y-127428892D01*
X167583463Y-127428901D01*
X167581458Y-127435072D01*
X167580780Y-127441522D01*
X167580778Y-127441532D01*
X167563827Y-127602817D01*
X167561496Y-127625000D01*
X167562175Y-127631460D01*
X167580778Y-127808467D01*
X167580779Y-127808475D01*
X167581458Y-127814928D01*
X167583463Y-127821100D01*
X167583465Y-127821107D01*
X167638465Y-127990377D01*
X167640473Y-127996556D01*
X167735960Y-128161944D01*
X167863747Y-128303866D01*
X167868997Y-128307680D01*
X167869000Y-128307683D01*
X168011863Y-128411479D01*
X168018248Y-128416118D01*
X168192712Y-128493794D01*
X168199070Y-128495145D01*
X168199072Y-128495146D01*
X168235874Y-128502968D01*
X168379513Y-128533500D01*
X168563984Y-128533500D01*
X168570487Y-128533500D01*
X168757288Y-128493794D01*
X168931752Y-128416118D01*
X169086253Y-128303866D01*
X169214040Y-128161944D01*
X169309527Y-127996556D01*
X169368542Y-127814928D01*
X169388504Y-127625000D01*
X169368542Y-127435072D01*
X169309527Y-127253444D01*
X169249017Y-127148638D01*
X189831500Y-127148638D01*
X189838011Y-127209201D01*
X189840717Y-127216458D01*
X189840719Y-127216463D01*
X189856817Y-127259622D01*
X189889111Y-127346204D01*
X189894425Y-127353303D01*
X189894426Y-127353304D01*
X189951010Y-127428892D01*
X189976739Y-127463261D01*
X190093796Y-127550889D01*
X190230799Y-127601989D01*
X190291362Y-127608500D01*
X192585328Y-127608500D01*
X192588638Y-127608500D01*
X192649201Y-127601989D01*
X192786204Y-127550889D01*
X192903261Y-127463261D01*
X192990889Y-127346204D01*
X193041989Y-127209201D01*
X193048500Y-127148638D01*
X193048500Y-124851362D01*
X193041989Y-124790799D01*
X192990889Y-124653796D01*
X192903261Y-124536739D01*
X192875809Y-124516189D01*
X192793304Y-124454426D01*
X192793303Y-124454425D01*
X192786204Y-124449111D01*
X192777896Y-124446012D01*
X192777894Y-124446011D01*
X192656463Y-124400719D01*
X192656458Y-124400717D01*
X192649201Y-124398011D01*
X192641497Y-124397182D01*
X192641494Y-124397182D01*
X192591924Y-124391853D01*
X192591918Y-124391852D01*
X192588638Y-124391500D01*
X190291362Y-124391500D01*
X190288082Y-124391852D01*
X190288075Y-124391853D01*
X190238505Y-124397182D01*
X190238500Y-124397182D01*
X190230799Y-124398011D01*
X190223543Y-124400717D01*
X190223536Y-124400719D01*
X190102105Y-124446011D01*
X190102099Y-124446013D01*
X190093796Y-124449111D01*
X190086698Y-124454423D01*
X190086695Y-124454426D01*
X189983835Y-124531426D01*
X189983831Y-124531429D01*
X189976739Y-124536739D01*
X189971429Y-124543831D01*
X189971426Y-124543835D01*
X189894426Y-124646695D01*
X189894423Y-124646698D01*
X189889111Y-124653796D01*
X189886013Y-124662099D01*
X189886011Y-124662105D01*
X189840719Y-124783536D01*
X189840717Y-124783543D01*
X189838011Y-124790799D01*
X189837182Y-124798500D01*
X189837182Y-124798505D01*
X189831853Y-124848075D01*
X189831500Y-124851362D01*
X189831500Y-127148638D01*
X169249017Y-127148638D01*
X169214040Y-127088056D01*
X169140349Y-127006214D01*
X169116736Y-126967681D01*
X169108500Y-126923243D01*
X169108500Y-109790000D01*
X175271496Y-109790000D01*
X175272175Y-109796460D01*
X175290778Y-109973467D01*
X175290779Y-109973475D01*
X175291458Y-109979928D01*
X175293463Y-109986100D01*
X175293465Y-109986107D01*
X175328373Y-110093540D01*
X175350473Y-110161556D01*
X175445960Y-110326944D01*
X175573747Y-110468866D01*
X175576417Y-110470806D01*
X175605780Y-110511219D01*
X175616500Y-110561655D01*
X175616500Y-118395478D01*
X175608264Y-118439916D01*
X175584650Y-118478450D01*
X175490306Y-118583228D01*
X175490301Y-118583234D01*
X175485960Y-118588056D01*
X175482714Y-118593676D01*
X175482711Y-118593682D01*
X175393721Y-118747817D01*
X175393718Y-118747822D01*
X175390473Y-118753444D01*
X175388467Y-118759616D01*
X175388465Y-118759622D01*
X175333465Y-118928892D01*
X175333463Y-118928901D01*
X175331458Y-118935072D01*
X175330780Y-118941522D01*
X175330778Y-118941532D01*
X175327050Y-118977008D01*
X175311496Y-119125000D01*
X175312175Y-119131460D01*
X175330778Y-119308467D01*
X175330779Y-119308475D01*
X175331458Y-119314928D01*
X175333463Y-119321100D01*
X175333465Y-119321107D01*
X175378518Y-119459764D01*
X175390473Y-119496556D01*
X175393720Y-119502180D01*
X175393721Y-119502182D01*
X175442493Y-119586658D01*
X175485960Y-119661944D01*
X175613747Y-119803866D01*
X175618997Y-119807680D01*
X175619000Y-119807683D01*
X175648269Y-119828948D01*
X175768248Y-119916118D01*
X175942712Y-119993794D01*
X175949070Y-119995145D01*
X175949072Y-119995146D01*
X175981421Y-120002022D01*
X176129513Y-120033500D01*
X176313984Y-120033500D01*
X176320487Y-120033500D01*
X176507288Y-119993794D01*
X176681752Y-119916118D01*
X176836253Y-119803866D01*
X176964040Y-119661944D01*
X177059527Y-119496556D01*
X177118542Y-119314928D01*
X177138504Y-119125000D01*
X177118542Y-118935072D01*
X177059527Y-118753444D01*
X176994724Y-118641202D01*
X189857244Y-118641202D01*
X189912466Y-118871219D01*
X189915468Y-118880456D01*
X190008115Y-119104126D01*
X190012529Y-119112789D01*
X190139022Y-119319208D01*
X190144734Y-119327070D01*
X190301969Y-119511169D01*
X190308830Y-119518030D01*
X190492929Y-119675265D01*
X190500791Y-119680977D01*
X190707210Y-119807470D01*
X190715873Y-119811884D01*
X190939543Y-119904531D01*
X190948780Y-119907533D01*
X191178797Y-119962755D01*
X191186294Y-119961263D01*
X191190000Y-119948123D01*
X191690000Y-119948123D01*
X191693705Y-119961263D01*
X191701202Y-119962755D01*
X191931219Y-119907533D01*
X191940456Y-119904531D01*
X192164126Y-119811884D01*
X192172789Y-119807470D01*
X192379208Y-119680977D01*
X192387070Y-119675265D01*
X192571169Y-119518030D01*
X192578030Y-119511169D01*
X192735265Y-119327070D01*
X192740977Y-119319208D01*
X192867470Y-119112789D01*
X192871884Y-119104126D01*
X192964531Y-118880456D01*
X192967533Y-118871219D01*
X193022755Y-118641202D01*
X193021263Y-118633705D01*
X193008123Y-118630000D01*
X191706326Y-118630000D01*
X191693450Y-118633450D01*
X191690000Y-118646326D01*
X191690000Y-119948123D01*
X191190000Y-119948123D01*
X191190000Y-118646326D01*
X191186549Y-118633450D01*
X191173674Y-118630000D01*
X189871877Y-118630000D01*
X189858736Y-118633705D01*
X189857244Y-118641202D01*
X176994724Y-118641202D01*
X176964040Y-118588056D01*
X176865349Y-118478448D01*
X176841736Y-118439916D01*
X176833500Y-118395478D01*
X176833500Y-118118797D01*
X189857244Y-118118797D01*
X189858736Y-118126294D01*
X189871877Y-118130000D01*
X191173674Y-118130000D01*
X191186549Y-118126549D01*
X191190000Y-118113674D01*
X191690000Y-118113674D01*
X191693450Y-118126549D01*
X191706326Y-118130000D01*
X193008123Y-118130000D01*
X193021263Y-118126294D01*
X193022755Y-118118797D01*
X192967533Y-117888780D01*
X192964531Y-117879543D01*
X192871884Y-117655873D01*
X192867470Y-117647210D01*
X192740977Y-117440791D01*
X192735265Y-117432929D01*
X192578030Y-117248830D01*
X192571169Y-117241969D01*
X192387070Y-117084734D01*
X192379208Y-117079022D01*
X192172789Y-116952529D01*
X192164126Y-116948115D01*
X191940456Y-116855468D01*
X191931219Y-116852466D01*
X191701202Y-116797244D01*
X191693705Y-116798736D01*
X191690000Y-116811877D01*
X191690000Y-118113674D01*
X191190000Y-118113674D01*
X191190000Y-116811877D01*
X191186294Y-116798736D01*
X191178797Y-116797244D01*
X190948780Y-116852466D01*
X190939543Y-116855468D01*
X190715873Y-116948115D01*
X190707210Y-116952529D01*
X190500791Y-117079022D01*
X190492929Y-117084734D01*
X190308830Y-117241969D01*
X190301969Y-117248830D01*
X190144734Y-117432929D01*
X190139022Y-117440791D01*
X190012529Y-117647210D01*
X190008115Y-117655873D01*
X189915468Y-117879543D01*
X189912466Y-117888780D01*
X189857244Y-118118797D01*
X176833500Y-118118797D01*
X176833500Y-110475098D01*
X176841736Y-110430660D01*
X176865350Y-110392126D01*
X176866942Y-110390357D01*
X176924040Y-110326944D01*
X177019527Y-110161556D01*
X177078542Y-109979928D01*
X177098504Y-109790000D01*
X177078542Y-109600072D01*
X177019527Y-109418444D01*
X176924040Y-109253056D01*
X176796253Y-109111134D01*
X176791003Y-109107319D01*
X176790999Y-109107316D01*
X176647006Y-109002699D01*
X176647004Y-109002697D01*
X176641752Y-108998882D01*
X176635821Y-108996241D01*
X176635817Y-108996239D01*
X176473226Y-108923849D01*
X176473219Y-108923846D01*
X176467288Y-108921206D01*
X176460935Y-108919855D01*
X176460927Y-108919853D01*
X176286849Y-108882852D01*
X176286846Y-108882851D01*
X176280487Y-108881500D01*
X176089513Y-108881500D01*
X176083154Y-108882851D01*
X176083150Y-108882852D01*
X175909072Y-108919853D01*
X175909061Y-108919856D01*
X175902712Y-108921206D01*
X175896782Y-108923845D01*
X175896773Y-108923849D01*
X175734182Y-108996239D01*
X175734174Y-108996243D01*
X175728248Y-108998882D01*
X175722999Y-109002695D01*
X175722993Y-109002699D01*
X175579000Y-109107316D01*
X175578991Y-109107323D01*
X175573747Y-109111134D01*
X175569403Y-109115957D01*
X175569400Y-109115961D01*
X175450307Y-109248228D01*
X175445960Y-109253056D01*
X175442714Y-109258676D01*
X175442711Y-109258682D01*
X175353721Y-109412817D01*
X175353718Y-109412822D01*
X175350473Y-109418444D01*
X175348467Y-109424616D01*
X175348465Y-109424622D01*
X175293465Y-109593892D01*
X175293463Y-109593901D01*
X175291458Y-109600072D01*
X175290780Y-109606522D01*
X175290778Y-109606532D01*
X175277316Y-109734622D01*
X175271496Y-109790000D01*
X169108500Y-109790000D01*
X169108500Y-105990000D01*
X197186709Y-105990000D01*
X197205845Y-106245353D01*
X197206874Y-106249862D01*
X197206876Y-106249874D01*
X197261793Y-106490476D01*
X197262826Y-106495001D01*
X197264521Y-106499320D01*
X197264522Y-106499323D01*
X197354680Y-106729044D01*
X197354683Y-106729050D01*
X197356378Y-106733369D01*
X197358696Y-106737384D01*
X197358699Y-106737390D01*
X197482092Y-106951112D01*
X197482096Y-106951117D01*
X197484413Y-106955131D01*
X197644069Y-107155334D01*
X197831781Y-107329505D01*
X198043355Y-107473754D01*
X198274065Y-107584858D01*
X198518757Y-107660335D01*
X198771966Y-107698500D01*
X199023397Y-107698500D01*
X199028034Y-107698500D01*
X199281243Y-107660335D01*
X199525935Y-107584858D01*
X199756646Y-107473754D01*
X199968219Y-107329505D01*
X200155931Y-107155334D01*
X200243768Y-107045188D01*
X200286914Y-107010780D01*
X200340716Y-106998500D01*
X204160904Y-106998500D01*
X204208357Y-107007939D01*
X204248585Y-107034819D01*
X206370181Y-109156415D01*
X206397061Y-109196643D01*
X206406500Y-109244096D01*
X206406500Y-111795304D01*
X206396488Y-111844117D01*
X206368070Y-111885047D01*
X206334505Y-111906057D01*
X206334890Y-111906761D01*
X206327104Y-111911012D01*
X206318796Y-111914111D01*
X206311698Y-111919423D01*
X206311695Y-111919426D01*
X206208835Y-111996426D01*
X206208831Y-111996429D01*
X206201739Y-112001739D01*
X206196429Y-112008831D01*
X206196426Y-112008835D01*
X206119426Y-112111695D01*
X206119423Y-112111698D01*
X206114111Y-112118796D01*
X206111013Y-112127099D01*
X206111011Y-112127105D01*
X206065719Y-112248536D01*
X206065717Y-112248543D01*
X206063011Y-112255799D01*
X206062182Y-112263500D01*
X206062182Y-112263505D01*
X206056853Y-112313075D01*
X206056500Y-112316362D01*
X206056500Y-114113638D01*
X206063011Y-114174201D01*
X206065717Y-114181458D01*
X206065719Y-114181463D01*
X206111011Y-114302894D01*
X206114111Y-114311204D01*
X206201739Y-114428261D01*
X206318796Y-114515889D01*
X206436595Y-114559826D01*
X206486130Y-114593841D01*
X206513857Y-114647152D01*
X206513264Y-114707238D01*
X206484490Y-114759991D01*
X206342753Y-114913956D01*
X206342747Y-114913963D01*
X206339278Y-114917732D01*
X206336481Y-114922012D01*
X206336474Y-114922022D01*
X206218942Y-115101920D01*
X206216140Y-115106209D01*
X206214085Y-115110892D01*
X206214080Y-115110903D01*
X206127764Y-115307687D01*
X206125704Y-115312384D01*
X206124446Y-115317349D01*
X206124445Y-115317354D01*
X206071695Y-115525657D01*
X206071693Y-115525666D01*
X206070436Y-115530632D01*
X206070012Y-115535741D01*
X206070011Y-115535751D01*
X206052268Y-115749883D01*
X206051844Y-115755000D01*
X206052268Y-115760117D01*
X206070011Y-115974248D01*
X206070012Y-115974256D01*
X206070436Y-115979368D01*
X206071693Y-115984335D01*
X206071695Y-115984342D01*
X206124445Y-116192645D01*
X206125704Y-116197616D01*
X206127764Y-116202312D01*
X206214080Y-116399096D01*
X206214083Y-116399101D01*
X206216140Y-116403791D01*
X206275505Y-116494656D01*
X206336474Y-116587977D01*
X206336477Y-116587981D01*
X206339278Y-116592268D01*
X206342752Y-116596041D01*
X206342753Y-116596043D01*
X206488288Y-116754135D01*
X206488291Y-116754138D01*
X206491760Y-116757906D01*
X206495801Y-116761051D01*
X206665376Y-116893039D01*
X206665381Y-116893042D01*
X206669424Y-116896189D01*
X206712691Y-116919604D01*
X206712695Y-116919606D01*
X206758335Y-116962155D01*
X206777475Y-117021545D01*
X206765267Y-117082737D01*
X206724803Y-117130236D01*
X206548352Y-117253788D01*
X206540092Y-117260719D01*
X206380719Y-117420092D01*
X206373784Y-117428357D01*
X206244508Y-117612982D01*
X206239110Y-117622332D01*
X206143856Y-117826602D01*
X206140168Y-117836736D01*
X206088056Y-118031219D01*
X206087688Y-118042448D01*
X206098631Y-118045000D01*
X208731369Y-118045000D01*
X208742311Y-118042448D01*
X208741943Y-118031219D01*
X208689831Y-117836736D01*
X208686143Y-117826602D01*
X208590889Y-117622332D01*
X208585491Y-117612982D01*
X208456215Y-117428357D01*
X208449280Y-117420092D01*
X208289909Y-117260721D01*
X208281635Y-117253778D01*
X208105198Y-117130234D01*
X208064734Y-117082735D01*
X208052526Y-117021543D01*
X208071666Y-116962153D01*
X208117304Y-116919606D01*
X208160576Y-116896189D01*
X208338240Y-116757906D01*
X208490722Y-116592268D01*
X208613860Y-116403791D01*
X208704296Y-116197616D01*
X208759564Y-115979368D01*
X208778156Y-115755000D01*
X208759564Y-115530632D01*
X208704296Y-115312384D01*
X208613860Y-115106209D01*
X208490722Y-114917732D01*
X208345506Y-114759987D01*
X208316735Y-114707239D01*
X208316142Y-114647152D01*
X208343869Y-114593841D01*
X208393404Y-114559826D01*
X208511204Y-114515889D01*
X208628261Y-114428261D01*
X208715889Y-114311204D01*
X208766989Y-114174201D01*
X208773500Y-114113638D01*
X208773500Y-112316362D01*
X208766989Y-112255799D01*
X208715889Y-112118796D01*
X208628261Y-112001739D01*
X208511204Y-111914111D01*
X208502894Y-111911011D01*
X208495110Y-111906761D01*
X208495494Y-111906057D01*
X208461930Y-111885047D01*
X208433512Y-111844117D01*
X208423500Y-111795304D01*
X208423500Y-108830642D01*
X208424097Y-108818488D01*
X208427783Y-108781062D01*
X208428380Y-108775000D01*
X208408909Y-108577299D01*
X208351241Y-108387197D01*
X208351241Y-108387196D01*
X208257595Y-108211996D01*
X208131568Y-108058432D01*
X208097784Y-108030706D01*
X208088768Y-108022534D01*
X205382464Y-105316230D01*
X205374291Y-105307213D01*
X205350429Y-105278137D01*
X205346568Y-105273432D01*
X205193004Y-105147405D01*
X205017804Y-105053759D01*
X205016057Y-105053229D01*
X205011983Y-105051993D01*
X205011978Y-105051991D01*
X204833535Y-104997860D01*
X204833527Y-104997858D01*
X204827701Y-104996091D01*
X204821642Y-104995494D01*
X204821636Y-104995493D01*
X204636062Y-104977217D01*
X204630000Y-104976620D01*
X204623938Y-104977217D01*
X204586512Y-104980903D01*
X204574358Y-104981500D01*
X200340716Y-104981500D01*
X200286914Y-104969220D01*
X200243769Y-104934812D01*
X200158823Y-104828293D01*
X200155931Y-104824666D01*
X199968219Y-104650495D01*
X199964385Y-104647881D01*
X199760482Y-104508861D01*
X199760478Y-104508859D01*
X199756646Y-104506246D01*
X199752460Y-104504230D01*
X199530118Y-104397156D01*
X199530113Y-104397154D01*
X199525935Y-104395142D01*
X199521502Y-104393774D01*
X199521498Y-104393773D01*
X199285678Y-104321033D01*
X199285677Y-104321032D01*
X199281243Y-104319665D01*
X199276655Y-104318973D01*
X199276653Y-104318973D01*
X199032619Y-104282191D01*
X199032618Y-104282190D01*
X199028034Y-104281500D01*
X198771966Y-104281500D01*
X198767382Y-104282190D01*
X198767380Y-104282191D01*
X198523346Y-104318973D01*
X198523341Y-104318973D01*
X198518757Y-104319665D01*
X198514324Y-104321032D01*
X198514321Y-104321033D01*
X198278502Y-104393773D01*
X198278497Y-104393774D01*
X198274065Y-104395142D01*
X198269886Y-104397154D01*
X198269882Y-104397156D01*
X198047540Y-104504230D01*
X198047533Y-104504233D01*
X198043355Y-104506246D01*
X198039522Y-104508859D01*
X198039519Y-104508861D01*
X197835615Y-104647881D01*
X197831781Y-104650495D01*
X197828389Y-104653641D01*
X197828383Y-104653647D01*
X197753171Y-104723434D01*
X197644069Y-104824666D01*
X197641180Y-104828288D01*
X197641176Y-104828293D01*
X197487305Y-105021242D01*
X197484413Y-105024869D01*
X197482099Y-105028875D01*
X197482092Y-105028887D01*
X197358699Y-105242609D01*
X197358693Y-105242620D01*
X197356378Y-105246631D01*
X197354685Y-105250944D01*
X197354680Y-105250955D01*
X197264522Y-105480676D01*
X197264519Y-105480683D01*
X197262826Y-105484999D01*
X197261794Y-105489517D01*
X197261793Y-105489523D01*
X197206876Y-105730125D01*
X197206873Y-105730139D01*
X197205845Y-105734647D01*
X197186709Y-105990000D01*
X169108500Y-105990000D01*
X169108500Y-102623848D01*
X169109031Y-102612563D01*
X169110702Y-102605092D01*
X169108560Y-102536969D01*
X169108500Y-102533075D01*
X169108500Y-102509044D01*
X169108500Y-102505144D01*
X169107983Y-102501058D01*
X169107065Y-102489399D01*
X169106994Y-102487136D01*
X169105674Y-102445111D01*
X169099974Y-102425494D01*
X169096033Y-102406461D01*
X169093474Y-102386203D01*
X169077165Y-102345012D01*
X169073380Y-102333958D01*
X169063193Y-102298895D01*
X169061018Y-102291407D01*
X169050619Y-102273824D01*
X169042070Y-102256371D01*
X169034552Y-102237383D01*
X169008503Y-102201530D01*
X169002098Y-102191779D01*
X168983514Y-102160355D01*
X168979542Y-102153638D01*
X168965106Y-102139202D01*
X168952470Y-102124407D01*
X168940472Y-102107893D01*
X168934460Y-102102920D01*
X168934457Y-102102916D01*
X168906325Y-102079643D01*
X168897685Y-102071781D01*
X167851905Y-101026000D01*
X207099000Y-101026000D01*
X207099149Y-101029033D01*
X207119031Y-101433749D01*
X207119032Y-101433761D01*
X207119181Y-101436790D01*
X207119625Y-101439786D01*
X207119627Y-101439802D01*
X207163586Y-101736145D01*
X207179529Y-101843624D01*
X207180263Y-101846555D01*
X207180265Y-101846564D01*
X207278724Y-102239636D01*
X207278728Y-102239651D01*
X207279463Y-102242583D01*
X207418021Y-102629826D01*
X207419319Y-102632570D01*
X207419323Y-102632580D01*
X207592565Y-102998871D01*
X207592573Y-102998886D01*
X207593868Y-103001624D01*
X207805311Y-103354395D01*
X208050313Y-103684742D01*
X208326515Y-103989485D01*
X208631258Y-104265687D01*
X208961605Y-104510689D01*
X209314376Y-104722132D01*
X209317121Y-104723430D01*
X209317128Y-104723434D01*
X209524500Y-104821513D01*
X209686174Y-104897979D01*
X210073417Y-105036537D01*
X210472376Y-105136471D01*
X210879210Y-105196819D01*
X211290000Y-105217000D01*
X211700790Y-105196819D01*
X212107624Y-105136471D01*
X212506583Y-105036537D01*
X212893826Y-104897979D01*
X213265624Y-104722132D01*
X213618395Y-104510689D01*
X213948742Y-104265687D01*
X214253485Y-103989485D01*
X214529687Y-103684742D01*
X214774689Y-103354395D01*
X214986132Y-103001624D01*
X215161979Y-102629826D01*
X215300537Y-102242583D01*
X215303689Y-102230000D01*
X218816526Y-102230000D01*
X218836391Y-102482403D01*
X218837526Y-102487132D01*
X218837527Y-102487136D01*
X218894357Y-102723854D01*
X218894359Y-102723862D01*
X218895495Y-102728591D01*
X218992384Y-102962502D01*
X218994931Y-102966659D01*
X218994932Y-102966660D01*
X219122125Y-103174221D01*
X219122130Y-103174228D01*
X219124672Y-103178376D01*
X219127831Y-103182075D01*
X219127835Y-103182080D01*
X219272781Y-103351789D01*
X219289102Y-103370898D01*
X219292802Y-103374058D01*
X219360050Y-103431494D01*
X219481624Y-103535328D01*
X219485774Y-103537871D01*
X219485778Y-103537874D01*
X219598100Y-103606704D01*
X219697498Y-103667616D01*
X219931409Y-103764505D01*
X220177597Y-103823609D01*
X220430000Y-103843474D01*
X220682403Y-103823609D01*
X220928591Y-103764505D01*
X221162502Y-103667616D01*
X221378376Y-103535328D01*
X221561836Y-103378638D01*
X225001500Y-103378638D01*
X225008011Y-103439201D01*
X225010717Y-103446458D01*
X225010719Y-103446463D01*
X225056011Y-103567894D01*
X225059111Y-103576204D01*
X225146739Y-103693261D01*
X225263796Y-103780889D01*
X225400799Y-103831989D01*
X225461362Y-103838500D01*
X227755328Y-103838500D01*
X227758638Y-103838500D01*
X227819201Y-103831989D01*
X227956204Y-103780889D01*
X228073261Y-103693261D01*
X228160889Y-103576204D01*
X228211989Y-103439201D01*
X228218500Y-103378638D01*
X228218500Y-101081362D01*
X228211989Y-101020799D01*
X228160889Y-100883796D01*
X228073261Y-100766739D01*
X227956204Y-100679111D01*
X227947896Y-100676012D01*
X227947894Y-100676011D01*
X227826463Y-100630719D01*
X227826458Y-100630717D01*
X227819201Y-100628011D01*
X227811497Y-100627182D01*
X227811494Y-100627182D01*
X227761924Y-100621853D01*
X227761918Y-100621852D01*
X227758638Y-100621500D01*
X225461362Y-100621500D01*
X225458082Y-100621852D01*
X225458075Y-100621853D01*
X225408505Y-100627182D01*
X225408500Y-100627182D01*
X225400799Y-100628011D01*
X225393543Y-100630717D01*
X225393536Y-100630719D01*
X225272105Y-100676011D01*
X225272099Y-100676013D01*
X225263796Y-100679111D01*
X225256698Y-100684423D01*
X225256695Y-100684426D01*
X225153835Y-100761426D01*
X225153831Y-100761429D01*
X225146739Y-100766739D01*
X225141429Y-100773831D01*
X225141426Y-100773835D01*
X225064426Y-100876695D01*
X225064423Y-100876698D01*
X225059111Y-100883796D01*
X225056013Y-100892099D01*
X225056011Y-100892105D01*
X225010719Y-101013536D01*
X225010717Y-101013543D01*
X225008011Y-101020799D01*
X225007182Y-101028500D01*
X225007182Y-101028505D01*
X225002658Y-101070588D01*
X225001500Y-101081362D01*
X225001500Y-103378638D01*
X221561836Y-103378638D01*
X221570898Y-103370898D01*
X221735328Y-103178376D01*
X221867616Y-102962502D01*
X221964505Y-102728591D01*
X222023609Y-102482403D01*
X222043474Y-102230000D01*
X222023609Y-101977597D01*
X221964505Y-101731409D01*
X221867616Y-101497498D01*
X221735328Y-101281624D01*
X221570898Y-101089102D01*
X221500567Y-101029033D01*
X221382080Y-100927835D01*
X221382075Y-100927831D01*
X221378376Y-100924672D01*
X221374228Y-100922130D01*
X221374221Y-100922125D01*
X221166660Y-100794932D01*
X221166659Y-100794931D01*
X221162502Y-100792384D01*
X220928591Y-100695495D01*
X220923862Y-100694359D01*
X220923854Y-100694357D01*
X220687136Y-100637527D01*
X220687132Y-100637526D01*
X220682403Y-100636391D01*
X220677550Y-100636009D01*
X220434854Y-100616908D01*
X220430000Y-100616526D01*
X220425146Y-100616908D01*
X220182449Y-100636009D01*
X220182447Y-100636009D01*
X220177597Y-100636391D01*
X220172869Y-100637525D01*
X220172863Y-100637527D01*
X219936145Y-100694357D01*
X219936133Y-100694360D01*
X219931409Y-100695495D01*
X219926912Y-100697357D01*
X219926908Y-100697359D01*
X219702002Y-100790518D01*
X219701997Y-100790520D01*
X219697498Y-100792384D01*
X219693345Y-100794928D01*
X219693339Y-100794932D01*
X219485778Y-100922125D01*
X219485765Y-100922134D01*
X219481624Y-100924672D01*
X219477929Y-100927827D01*
X219477919Y-100927835D01*
X219292802Y-101085941D01*
X219292795Y-101085947D01*
X219289102Y-101089102D01*
X219285947Y-101092795D01*
X219285941Y-101092802D01*
X219127835Y-101277919D01*
X219127827Y-101277929D01*
X219124672Y-101281624D01*
X219122134Y-101285765D01*
X219122125Y-101285778D01*
X218994932Y-101493339D01*
X218994928Y-101493345D01*
X218992384Y-101497498D01*
X218895495Y-101731409D01*
X218894360Y-101736133D01*
X218894357Y-101736145D01*
X218837527Y-101972863D01*
X218837525Y-101972869D01*
X218836391Y-101977597D01*
X218836009Y-101982447D01*
X218836009Y-101982449D01*
X218824215Y-102132302D01*
X218816526Y-102230000D01*
X215303689Y-102230000D01*
X215400471Y-101843624D01*
X215460819Y-101436790D01*
X215481000Y-101026000D01*
X215460819Y-100615210D01*
X215400471Y-100208376D01*
X215300537Y-99809417D01*
X215161979Y-99422174D01*
X214986132Y-99050376D01*
X214774689Y-98697605D01*
X214529687Y-98367258D01*
X214253485Y-98062515D01*
X213948742Y-97786313D01*
X213618395Y-97541311D01*
X213265624Y-97329868D01*
X213262886Y-97328573D01*
X213262871Y-97328565D01*
X212896580Y-97155323D01*
X212896570Y-97155319D01*
X212893826Y-97154021D01*
X212506583Y-97015463D01*
X212503651Y-97014728D01*
X212503636Y-97014724D01*
X212110564Y-96916265D01*
X212110555Y-96916263D01*
X212107624Y-96915529D01*
X212104627Y-96915084D01*
X212104625Y-96915084D01*
X211703802Y-96855627D01*
X211703786Y-96855625D01*
X211700790Y-96855181D01*
X211697761Y-96855032D01*
X211697749Y-96855031D01*
X211293033Y-96835149D01*
X211290000Y-96835000D01*
X211286967Y-96835149D01*
X210882250Y-96855031D01*
X210882236Y-96855032D01*
X210879210Y-96855181D01*
X210876215Y-96855625D01*
X210876197Y-96855627D01*
X210475374Y-96915084D01*
X210475368Y-96915085D01*
X210472376Y-96915529D01*
X210469448Y-96916262D01*
X210469435Y-96916265D01*
X210076363Y-97014724D01*
X210076342Y-97014730D01*
X210073417Y-97015463D01*
X210070552Y-97016487D01*
X210070549Y-97016489D01*
X209689052Y-97152991D01*
X209689047Y-97152992D01*
X209686174Y-97154021D01*
X209683436Y-97155315D01*
X209683419Y-97155323D01*
X209317128Y-97328565D01*
X209317105Y-97328577D01*
X209314376Y-97329868D01*
X209311767Y-97331431D01*
X209311759Y-97331436D01*
X208964210Y-97539749D01*
X208964200Y-97539755D01*
X208961605Y-97541311D01*
X208959177Y-97543110D01*
X208959169Y-97543117D01*
X208633701Y-97784501D01*
X208631258Y-97786313D01*
X208629006Y-97788353D01*
X208629000Y-97788359D01*
X208328767Y-98060473D01*
X208328757Y-98060482D01*
X208326515Y-98062515D01*
X208324482Y-98064757D01*
X208324473Y-98064767D01*
X208052359Y-98365000D01*
X208052353Y-98365006D01*
X208050313Y-98367258D01*
X208048502Y-98369699D01*
X208048501Y-98369701D01*
X207807117Y-98695169D01*
X207807110Y-98695177D01*
X207805311Y-98697605D01*
X207803755Y-98700200D01*
X207803749Y-98700210D01*
X207595436Y-99047759D01*
X207595431Y-99047767D01*
X207593868Y-99050376D01*
X207592577Y-99053105D01*
X207592565Y-99053128D01*
X207419323Y-99419419D01*
X207419315Y-99419436D01*
X207418021Y-99422174D01*
X207416992Y-99425047D01*
X207416991Y-99425052D01*
X207280489Y-99806549D01*
X207279463Y-99809417D01*
X207278730Y-99812342D01*
X207278724Y-99812363D01*
X207180265Y-100205435D01*
X207180262Y-100205448D01*
X207179529Y-100208376D01*
X207179085Y-100211368D01*
X207179084Y-100211374D01*
X207119627Y-100612197D01*
X207119625Y-100612215D01*
X207119181Y-100615210D01*
X207119032Y-100618236D01*
X207119031Y-100618250D01*
X207100661Y-100992190D01*
X207099000Y-101026000D01*
X167851905Y-101026000D01*
X167476334Y-100650429D01*
X167443441Y-100591694D01*
X167446084Y-100524430D01*
X167473542Y-100439928D01*
X167493504Y-100250000D01*
X167473542Y-100060072D01*
X167414527Y-99878444D01*
X167319040Y-99713056D01*
X167191253Y-99571134D01*
X167186003Y-99567319D01*
X167185999Y-99567316D01*
X167042006Y-99462699D01*
X167042004Y-99462697D01*
X167036752Y-99458882D01*
X167030821Y-99456241D01*
X167030817Y-99456239D01*
X166868226Y-99383849D01*
X166868219Y-99383846D01*
X166862288Y-99381206D01*
X166855935Y-99379855D01*
X166855927Y-99379853D01*
X166681849Y-99342852D01*
X166681846Y-99342851D01*
X166675487Y-99341500D01*
X166484513Y-99341500D01*
X166478154Y-99342851D01*
X166478150Y-99342852D01*
X166304072Y-99379853D01*
X166304061Y-99379856D01*
X166297712Y-99381206D01*
X166291782Y-99383845D01*
X166291773Y-99383849D01*
X166129182Y-99456239D01*
X166129174Y-99456243D01*
X166123248Y-99458882D01*
X166117999Y-99462695D01*
X166117993Y-99462699D01*
X165974000Y-99567316D01*
X165973991Y-99567323D01*
X165968747Y-99571134D01*
X165964403Y-99575957D01*
X165964400Y-99575961D01*
X165845307Y-99708228D01*
X165840960Y-99713056D01*
X165837714Y-99718676D01*
X165837711Y-99718682D01*
X165748721Y-99872817D01*
X165748718Y-99872822D01*
X165745473Y-99878444D01*
X165743467Y-99884616D01*
X165743465Y-99884622D01*
X165688465Y-100053892D01*
X165688463Y-100053901D01*
X165686458Y-100060072D01*
X165685780Y-100066522D01*
X165685778Y-100066532D01*
X165671180Y-100205435D01*
X165666496Y-100250000D01*
X164935538Y-100250000D01*
X164930018Y-95758638D01*
X218821500Y-95758638D01*
X218828011Y-95819201D01*
X218830717Y-95826458D01*
X218830719Y-95826463D01*
X218876011Y-95947894D01*
X218879111Y-95956204D01*
X218966739Y-96073261D01*
X219083796Y-96160889D01*
X219220799Y-96211989D01*
X219281362Y-96218500D01*
X221575328Y-96218500D01*
X221578638Y-96218500D01*
X221639201Y-96211989D01*
X221776204Y-96160889D01*
X221893261Y-96073261D01*
X221980889Y-95956204D01*
X222031989Y-95819201D01*
X222038500Y-95758638D01*
X222038500Y-94871202D01*
X225027244Y-94871202D01*
X225082466Y-95101219D01*
X225085468Y-95110456D01*
X225178115Y-95334126D01*
X225182529Y-95342789D01*
X225309022Y-95549208D01*
X225314734Y-95557070D01*
X225471969Y-95741169D01*
X225478830Y-95748030D01*
X225662929Y-95905265D01*
X225670791Y-95910977D01*
X225877210Y-96037470D01*
X225885873Y-96041884D01*
X226109543Y-96134531D01*
X226118780Y-96137533D01*
X226348797Y-96192755D01*
X226356294Y-96191263D01*
X226360000Y-96178123D01*
X226860000Y-96178123D01*
X226863705Y-96191263D01*
X226871202Y-96192755D01*
X227101219Y-96137533D01*
X227110456Y-96134531D01*
X227334126Y-96041884D01*
X227342789Y-96037470D01*
X227549208Y-95910977D01*
X227557070Y-95905265D01*
X227741169Y-95748030D01*
X227748030Y-95741169D01*
X227905265Y-95557070D01*
X227910977Y-95549208D01*
X228037470Y-95342789D01*
X228041884Y-95334126D01*
X228134531Y-95110456D01*
X228137533Y-95101219D01*
X228192755Y-94871202D01*
X228191263Y-94863705D01*
X228178123Y-94860000D01*
X226876326Y-94860000D01*
X226863450Y-94863450D01*
X226860000Y-94876326D01*
X226860000Y-96178123D01*
X226360000Y-96178123D01*
X226360000Y-94876326D01*
X226356549Y-94863450D01*
X226343674Y-94860000D01*
X225041877Y-94860000D01*
X225028736Y-94863705D01*
X225027244Y-94871202D01*
X222038500Y-94871202D01*
X222038500Y-94348797D01*
X225027244Y-94348797D01*
X225028736Y-94356294D01*
X225041877Y-94360000D01*
X226343674Y-94360000D01*
X226356549Y-94356549D01*
X226360000Y-94343674D01*
X226860000Y-94343674D01*
X226863450Y-94356549D01*
X226876326Y-94360000D01*
X228178123Y-94360000D01*
X228191263Y-94356294D01*
X228192755Y-94348797D01*
X228137533Y-94118780D01*
X228134531Y-94109543D01*
X228041884Y-93885873D01*
X228037470Y-93877210D01*
X227910977Y-93670791D01*
X227905265Y-93662929D01*
X227748030Y-93478830D01*
X227741169Y-93471969D01*
X227557070Y-93314734D01*
X227549208Y-93309022D01*
X227342789Y-93182529D01*
X227334126Y-93178115D01*
X227110456Y-93085468D01*
X227101219Y-93082466D01*
X226871202Y-93027244D01*
X226863705Y-93028736D01*
X226860000Y-93041877D01*
X226860000Y-94343674D01*
X226360000Y-94343674D01*
X226360000Y-93041877D01*
X226356294Y-93028736D01*
X226348797Y-93027244D01*
X226118780Y-93082466D01*
X226109543Y-93085468D01*
X225885873Y-93178115D01*
X225877210Y-93182529D01*
X225670791Y-93309022D01*
X225662929Y-93314734D01*
X225478830Y-93471969D01*
X225471969Y-93478830D01*
X225314734Y-93662929D01*
X225309022Y-93670791D01*
X225182529Y-93877210D01*
X225178115Y-93885873D01*
X225085468Y-94109543D01*
X225082466Y-94118780D01*
X225027244Y-94348797D01*
X222038500Y-94348797D01*
X222038500Y-93461362D01*
X222031989Y-93400799D01*
X221980889Y-93263796D01*
X221893261Y-93146739D01*
X221776204Y-93059111D01*
X221767896Y-93056012D01*
X221767894Y-93056011D01*
X221646463Y-93010719D01*
X221646458Y-93010717D01*
X221639201Y-93008011D01*
X221631497Y-93007182D01*
X221631494Y-93007182D01*
X221581924Y-93001853D01*
X221581918Y-93001852D01*
X221578638Y-93001500D01*
X219281362Y-93001500D01*
X219278082Y-93001852D01*
X219278075Y-93001853D01*
X219228505Y-93007182D01*
X219228500Y-93007182D01*
X219220799Y-93008011D01*
X219213543Y-93010717D01*
X219213536Y-93010719D01*
X219092105Y-93056011D01*
X219092099Y-93056013D01*
X219083796Y-93059111D01*
X219076698Y-93064423D01*
X219076695Y-93064426D01*
X218973835Y-93141426D01*
X218973831Y-93141429D01*
X218966739Y-93146739D01*
X218961429Y-93153831D01*
X218961426Y-93153835D01*
X218884426Y-93256695D01*
X218884423Y-93256698D01*
X218879111Y-93263796D01*
X218876013Y-93272099D01*
X218876011Y-93272105D01*
X218830719Y-93393536D01*
X218830717Y-93393543D01*
X218828011Y-93400799D01*
X218827182Y-93408500D01*
X218827182Y-93408505D01*
X218821853Y-93458075D01*
X218821500Y-93461362D01*
X218821500Y-95758638D01*
X164930018Y-95758638D01*
X164924175Y-91004152D01*
X168102050Y-91004152D01*
X168102893Y-91009205D01*
X168102894Y-91009214D01*
X168140429Y-91234147D01*
X168140431Y-91234156D01*
X168141274Y-91239206D01*
X168142939Y-91244058D01*
X168142940Y-91244059D01*
X168216986Y-91459749D01*
X168216989Y-91459756D01*
X168218651Y-91464597D01*
X168221086Y-91469097D01*
X168221089Y-91469103D01*
X168329628Y-91669665D01*
X168332071Y-91674179D01*
X168335217Y-91678221D01*
X168335221Y-91678227D01*
X168475289Y-91858187D01*
X168478440Y-91862235D01*
X168653766Y-92023633D01*
X168853266Y-92153973D01*
X169071498Y-92249699D01*
X169302510Y-92308199D01*
X169480528Y-92322950D01*
X169596902Y-92322950D01*
X169599472Y-92322950D01*
X169777490Y-92308199D01*
X170008502Y-92249699D01*
X170226734Y-92153973D01*
X170426234Y-92023633D01*
X170601560Y-91862235D01*
X170747929Y-91674179D01*
X170861349Y-91464597D01*
X170938726Y-91239206D01*
X170977950Y-91004152D01*
X171277050Y-91004152D01*
X171277893Y-91009205D01*
X171277894Y-91009214D01*
X171315429Y-91234147D01*
X171315431Y-91234156D01*
X171316274Y-91239206D01*
X171317939Y-91244058D01*
X171317940Y-91244059D01*
X171391986Y-91459749D01*
X171391989Y-91459756D01*
X171393651Y-91464597D01*
X171396086Y-91469097D01*
X171396089Y-91469103D01*
X171504628Y-91669665D01*
X171507071Y-91674179D01*
X171510217Y-91678221D01*
X171510221Y-91678227D01*
X171650289Y-91858187D01*
X171653440Y-91862235D01*
X171828766Y-92023633D01*
X172028266Y-92153973D01*
X172246498Y-92249699D01*
X172477510Y-92308199D01*
X172655528Y-92322950D01*
X172771902Y-92322950D01*
X172774472Y-92322950D01*
X172952490Y-92308199D01*
X173183502Y-92249699D01*
X173401734Y-92153973D01*
X173601234Y-92023633D01*
X173776560Y-91862235D01*
X173922929Y-91674179D01*
X174036349Y-91464597D01*
X174113726Y-91239206D01*
X174152950Y-91004152D01*
X174152950Y-90765848D01*
X174113726Y-90530794D01*
X174036349Y-90305403D01*
X173922929Y-90095821D01*
X173919672Y-90091637D01*
X173779710Y-89911812D01*
X173779709Y-89911811D01*
X173776560Y-89907765D01*
X173601234Y-89746367D01*
X173596950Y-89743568D01*
X173596946Y-89743565D01*
X173456014Y-89651490D01*
X173401734Y-89616027D01*
X173397044Y-89613970D01*
X173397039Y-89613967D01*
X173188198Y-89522361D01*
X173188199Y-89522361D01*
X173183502Y-89520301D01*
X173178532Y-89519042D01*
X173178531Y-89519042D01*
X172957464Y-89463060D01*
X172957457Y-89463058D01*
X172952490Y-89461801D01*
X172947378Y-89461377D01*
X172947370Y-89461376D01*
X172777038Y-89447262D01*
X172777022Y-89447261D01*
X172774472Y-89447050D01*
X172655528Y-89447050D01*
X172652978Y-89447261D01*
X172652961Y-89447262D01*
X172482629Y-89461376D01*
X172482619Y-89461377D01*
X172477510Y-89461801D01*
X172472544Y-89463058D01*
X172472535Y-89463060D01*
X172251468Y-89519042D01*
X172251463Y-89519043D01*
X172246498Y-89520301D01*
X172241804Y-89522359D01*
X172241801Y-89522361D01*
X172032960Y-89613967D01*
X172032950Y-89613972D01*
X172028266Y-89616027D01*
X172023978Y-89618828D01*
X172023977Y-89618829D01*
X171833053Y-89743565D01*
X171833043Y-89743572D01*
X171828766Y-89746367D01*
X171824999Y-89749834D01*
X171824996Y-89749837D01*
X171657213Y-89904291D01*
X171657208Y-89904295D01*
X171653440Y-89907765D01*
X171650296Y-89911804D01*
X171650289Y-89911812D01*
X171510221Y-90091772D01*
X171510213Y-90091783D01*
X171507071Y-90095821D01*
X171504632Y-90100327D01*
X171504628Y-90100334D01*
X171396089Y-90300896D01*
X171396084Y-90300906D01*
X171393651Y-90305403D01*
X171391990Y-90310239D01*
X171391986Y-90310250D01*
X171356787Y-90412783D01*
X171316274Y-90530794D01*
X171315431Y-90535840D01*
X171315429Y-90535852D01*
X171277894Y-90760785D01*
X171277893Y-90760795D01*
X171277050Y-90765848D01*
X171277050Y-91004152D01*
X170977950Y-91004152D01*
X170977950Y-90765848D01*
X170938726Y-90530794D01*
X170861349Y-90305403D01*
X170747929Y-90095821D01*
X170744672Y-90091637D01*
X170604710Y-89911812D01*
X170604709Y-89911811D01*
X170601560Y-89907765D01*
X170426234Y-89746367D01*
X170421950Y-89743568D01*
X170421946Y-89743565D01*
X170281014Y-89651490D01*
X170226734Y-89616027D01*
X170222044Y-89613970D01*
X170222039Y-89613967D01*
X170013198Y-89522361D01*
X170013199Y-89522361D01*
X170008502Y-89520301D01*
X170003532Y-89519042D01*
X170003531Y-89519042D01*
X169782464Y-89463060D01*
X169782457Y-89463058D01*
X169777490Y-89461801D01*
X169772378Y-89461377D01*
X169772370Y-89461376D01*
X169602038Y-89447262D01*
X169602022Y-89447261D01*
X169599472Y-89447050D01*
X169480528Y-89447050D01*
X169477978Y-89447261D01*
X169477961Y-89447262D01*
X169307629Y-89461376D01*
X169307619Y-89461377D01*
X169302510Y-89461801D01*
X169297544Y-89463058D01*
X169297535Y-89463060D01*
X169076468Y-89519042D01*
X169076463Y-89519043D01*
X169071498Y-89520301D01*
X169066804Y-89522359D01*
X169066801Y-89522361D01*
X168857960Y-89613967D01*
X168857950Y-89613972D01*
X168853266Y-89616027D01*
X168848978Y-89618828D01*
X168848977Y-89618829D01*
X168658053Y-89743565D01*
X168658043Y-89743572D01*
X168653766Y-89746367D01*
X168649999Y-89749834D01*
X168649996Y-89749837D01*
X168482213Y-89904291D01*
X168482208Y-89904295D01*
X168478440Y-89907765D01*
X168475296Y-89911804D01*
X168475289Y-89911812D01*
X168335221Y-90091772D01*
X168335213Y-90091783D01*
X168332071Y-90095821D01*
X168329632Y-90100327D01*
X168329628Y-90100334D01*
X168221089Y-90300896D01*
X168221084Y-90300906D01*
X168218651Y-90305403D01*
X168216990Y-90310239D01*
X168216986Y-90310250D01*
X168181787Y-90412783D01*
X168141274Y-90530794D01*
X168140431Y-90535840D01*
X168140429Y-90535852D01*
X168102894Y-90760785D01*
X168102893Y-90760795D01*
X168102050Y-90765848D01*
X168102050Y-91004152D01*
X164924175Y-91004152D01*
X164922209Y-89404660D01*
X173870393Y-89404660D01*
X173871645Y-89411763D01*
X173871646Y-89411771D01*
X173899413Y-89569240D01*
X173899414Y-89569244D01*
X173900668Y-89576354D01*
X173903527Y-89582982D01*
X173903528Y-89582985D01*
X173918989Y-89618829D01*
X173969721Y-89736438D01*
X173974034Y-89742231D01*
X173974035Y-89742233D01*
X174069520Y-89870491D01*
X174073832Y-89876283D01*
X174207386Y-89988349D01*
X174363185Y-90066594D01*
X174532829Y-90106800D01*
X174659837Y-90106800D01*
X174663436Y-90106800D01*
X174793164Y-90091637D01*
X174956993Y-90032008D01*
X175102654Y-89936205D01*
X175222296Y-89809393D01*
X175309467Y-89658407D01*
X175359469Y-89491388D01*
X175369607Y-89317340D01*
X175339332Y-89145646D01*
X175270279Y-88985562D01*
X175166168Y-88845717D01*
X175159355Y-88840000D01*
X175038145Y-88738292D01*
X175038144Y-88738291D01*
X175032614Y-88733651D01*
X175006305Y-88720438D01*
X174883265Y-88658645D01*
X174883262Y-88658644D01*
X174876815Y-88655406D01*
X174869790Y-88653741D01*
X174714198Y-88616865D01*
X174714194Y-88616864D01*
X174707171Y-88615200D01*
X174576564Y-88615200D01*
X174572999Y-88615616D01*
X174572993Y-88615617D01*
X174454003Y-88629525D01*
X174454000Y-88629525D01*
X174446836Y-88630363D01*
X174440057Y-88632830D01*
X174440054Y-88632831D01*
X174289792Y-88687522D01*
X174289788Y-88687523D01*
X174283007Y-88689992D01*
X174276980Y-88693955D01*
X174276970Y-88693961D01*
X174143382Y-88781824D01*
X174143376Y-88781828D01*
X174137346Y-88785795D01*
X174132393Y-88791044D01*
X174132388Y-88791049D01*
X174022661Y-88907352D01*
X174022657Y-88907356D01*
X174017704Y-88912607D01*
X174014095Y-88918857D01*
X174014092Y-88918862D01*
X173934143Y-89057339D01*
X173934140Y-89057343D01*
X173930533Y-89063593D01*
X173928463Y-89070505D01*
X173928462Y-89070509D01*
X173883115Y-89221981D01*
X173880531Y-89230612D01*
X173880111Y-89237815D01*
X173880111Y-89237818D01*
X173875479Y-89317340D01*
X173870393Y-89404660D01*
X164922209Y-89404660D01*
X164920961Y-88388660D01*
X168790393Y-88388660D01*
X168791645Y-88395763D01*
X168791646Y-88395771D01*
X168819413Y-88553240D01*
X168819414Y-88553244D01*
X168820668Y-88560354D01*
X168823527Y-88566982D01*
X168823528Y-88566985D01*
X168875522Y-88687522D01*
X168889721Y-88720438D01*
X168894034Y-88726231D01*
X168894035Y-88726233D01*
X168974219Y-88833938D01*
X168993832Y-88860283D01*
X169127386Y-88972349D01*
X169283185Y-89050594D01*
X169452829Y-89090800D01*
X169579837Y-89090800D01*
X169583436Y-89090800D01*
X169713164Y-89075637D01*
X169876993Y-89016008D01*
X170022654Y-88920205D01*
X170142296Y-88793393D01*
X170229467Y-88642407D01*
X170279469Y-88475388D01*
X170289607Y-88301340D01*
X170259332Y-88129646D01*
X170190279Y-87969562D01*
X170086168Y-87829717D01*
X169952614Y-87717651D01*
X169926305Y-87704438D01*
X169803265Y-87642645D01*
X169803262Y-87642644D01*
X169796815Y-87639406D01*
X169789790Y-87637741D01*
X169634198Y-87600865D01*
X169634194Y-87600864D01*
X169627171Y-87599200D01*
X169496564Y-87599200D01*
X169492999Y-87599616D01*
X169492993Y-87599617D01*
X169374003Y-87613525D01*
X169374000Y-87613525D01*
X169366836Y-87614363D01*
X169360057Y-87616830D01*
X169360054Y-87616831D01*
X169209792Y-87671522D01*
X169209788Y-87671523D01*
X169203007Y-87673992D01*
X169196980Y-87677955D01*
X169196970Y-87677961D01*
X169063382Y-87765824D01*
X169063376Y-87765828D01*
X169057346Y-87769795D01*
X169052393Y-87775044D01*
X169052388Y-87775049D01*
X168942661Y-87891352D01*
X168942657Y-87891356D01*
X168937704Y-87896607D01*
X168934095Y-87902857D01*
X168934092Y-87902862D01*
X168854143Y-88041339D01*
X168854140Y-88041343D01*
X168850533Y-88047593D01*
X168848463Y-88054505D01*
X168848462Y-88054509D01*
X168802601Y-88207697D01*
X168800531Y-88214612D01*
X168800111Y-88221815D01*
X168800111Y-88221818D01*
X168795479Y-88301340D01*
X168790393Y-88388660D01*
X164920961Y-88388660D01*
X164919712Y-87372660D01*
X173870393Y-87372660D01*
X173871645Y-87379763D01*
X173871646Y-87379771D01*
X173899413Y-87537240D01*
X173899414Y-87537244D01*
X173900668Y-87544354D01*
X173903527Y-87550982D01*
X173903528Y-87550985D01*
X173955522Y-87671522D01*
X173969721Y-87704438D01*
X173974034Y-87710231D01*
X173974035Y-87710233D01*
X174059532Y-87825075D01*
X174073832Y-87844283D01*
X174207386Y-87956349D01*
X174363185Y-88034594D01*
X174532829Y-88074800D01*
X174659837Y-88074800D01*
X174663436Y-88074800D01*
X174793164Y-88059637D01*
X174956993Y-88000008D01*
X175102654Y-87904205D01*
X175222296Y-87777393D01*
X175309467Y-87626407D01*
X175359469Y-87459388D01*
X175369607Y-87285340D01*
X175339332Y-87113646D01*
X175270279Y-86953562D01*
X175166168Y-86813717D01*
X175160636Y-86809075D01*
X175038145Y-86706292D01*
X175038144Y-86706291D01*
X175032614Y-86701651D01*
X174945682Y-86657992D01*
X174883265Y-86626645D01*
X174883262Y-86626644D01*
X174876815Y-86623406D01*
X174869790Y-86621741D01*
X174714198Y-86584865D01*
X174714194Y-86584864D01*
X174707171Y-86583200D01*
X174576564Y-86583200D01*
X174572999Y-86583616D01*
X174572993Y-86583617D01*
X174454003Y-86597525D01*
X174454000Y-86597525D01*
X174446836Y-86598363D01*
X174440057Y-86600830D01*
X174440054Y-86600831D01*
X174289792Y-86655522D01*
X174289788Y-86655523D01*
X174283007Y-86657992D01*
X174276980Y-86661955D01*
X174276970Y-86661961D01*
X174143382Y-86749824D01*
X174143376Y-86749828D01*
X174137346Y-86753795D01*
X174132393Y-86759044D01*
X174132388Y-86759049D01*
X174022661Y-86875352D01*
X174022657Y-86875356D01*
X174017704Y-86880607D01*
X174014095Y-86886857D01*
X174014092Y-86886862D01*
X173934143Y-87025339D01*
X173934140Y-87025343D01*
X173930533Y-87031593D01*
X173928463Y-87038505D01*
X173928462Y-87038509D01*
X173898762Y-87137716D01*
X173880531Y-87198612D01*
X173880111Y-87205815D01*
X173880111Y-87205818D01*
X173875682Y-87281861D01*
X173870393Y-87372660D01*
X164919712Y-87372660D01*
X164917932Y-85924152D01*
X168102050Y-85924152D01*
X168102893Y-85929205D01*
X168102894Y-85929214D01*
X168140429Y-86154147D01*
X168140431Y-86154156D01*
X168141274Y-86159206D01*
X168142939Y-86164058D01*
X168142940Y-86164059D01*
X168216986Y-86379749D01*
X168216989Y-86379756D01*
X168218651Y-86384597D01*
X168221086Y-86389097D01*
X168221089Y-86389103D01*
X168329628Y-86589665D01*
X168332071Y-86594179D01*
X168335217Y-86598221D01*
X168335221Y-86598227D01*
X168475289Y-86778187D01*
X168478440Y-86782235D01*
X168653766Y-86943633D01*
X168853266Y-87073973D01*
X169071498Y-87169699D01*
X169302510Y-87228199D01*
X169480528Y-87242950D01*
X169596902Y-87242950D01*
X169599472Y-87242950D01*
X169777490Y-87228199D01*
X170008502Y-87169699D01*
X170226734Y-87073973D01*
X170426234Y-86943633D01*
X170601560Y-86782235D01*
X170747929Y-86594179D01*
X170861349Y-86384597D01*
X170938726Y-86159206D01*
X170977950Y-85924152D01*
X171277050Y-85924152D01*
X171277893Y-85929205D01*
X171277894Y-85929214D01*
X171315429Y-86154147D01*
X171315431Y-86154156D01*
X171316274Y-86159206D01*
X171317939Y-86164058D01*
X171317940Y-86164059D01*
X171391986Y-86379749D01*
X171391989Y-86379756D01*
X171393651Y-86384597D01*
X171396086Y-86389097D01*
X171396089Y-86389103D01*
X171504628Y-86589665D01*
X171507071Y-86594179D01*
X171510217Y-86598221D01*
X171510221Y-86598227D01*
X171650289Y-86778187D01*
X171653440Y-86782235D01*
X171828766Y-86943633D01*
X172028266Y-87073973D01*
X172246498Y-87169699D01*
X172477510Y-87228199D01*
X172655528Y-87242950D01*
X172771902Y-87242950D01*
X172774472Y-87242950D01*
X172952490Y-87228199D01*
X173183502Y-87169699D01*
X173401734Y-87073973D01*
X173601234Y-86943633D01*
X173776560Y-86782235D01*
X173922929Y-86594179D01*
X174036349Y-86384597D01*
X174113726Y-86159206D01*
X174152950Y-85924152D01*
X174152950Y-85685848D01*
X174113726Y-85450794D01*
X174036349Y-85225403D01*
X173922929Y-85015821D01*
X173919311Y-85011173D01*
X173779710Y-84831812D01*
X173779709Y-84831811D01*
X173776560Y-84827765D01*
X173601234Y-84666367D01*
X173596950Y-84663568D01*
X173596946Y-84663565D01*
X173458241Y-84572945D01*
X173401734Y-84536027D01*
X173397044Y-84533970D01*
X173397039Y-84533967D01*
X173188198Y-84442361D01*
X173188199Y-84442361D01*
X173183502Y-84440301D01*
X173178532Y-84439042D01*
X173178531Y-84439042D01*
X172957464Y-84383060D01*
X172957457Y-84383058D01*
X172952490Y-84381801D01*
X172947378Y-84381377D01*
X172947370Y-84381376D01*
X172777038Y-84367262D01*
X172777022Y-84367261D01*
X172774472Y-84367050D01*
X172655528Y-84367050D01*
X172652978Y-84367261D01*
X172652961Y-84367262D01*
X172482629Y-84381376D01*
X172482619Y-84381377D01*
X172477510Y-84381801D01*
X172472544Y-84383058D01*
X172472535Y-84383060D01*
X172251468Y-84439042D01*
X172251463Y-84439043D01*
X172246498Y-84440301D01*
X172241804Y-84442359D01*
X172241801Y-84442361D01*
X172032960Y-84533967D01*
X172032950Y-84533972D01*
X172028266Y-84536027D01*
X172023978Y-84538828D01*
X172023977Y-84538829D01*
X171833053Y-84663565D01*
X171833043Y-84663572D01*
X171828766Y-84666367D01*
X171824999Y-84669834D01*
X171824996Y-84669837D01*
X171657213Y-84824291D01*
X171657208Y-84824295D01*
X171653440Y-84827765D01*
X171650296Y-84831804D01*
X171650289Y-84831812D01*
X171510221Y-85011772D01*
X171510213Y-85011783D01*
X171507071Y-85015821D01*
X171504632Y-85020327D01*
X171504628Y-85020334D01*
X171396089Y-85220896D01*
X171396084Y-85220906D01*
X171393651Y-85225403D01*
X171391990Y-85230239D01*
X171391986Y-85230250D01*
X171344030Y-85369943D01*
X171316274Y-85450794D01*
X171315431Y-85455840D01*
X171315429Y-85455852D01*
X171277894Y-85680785D01*
X171277893Y-85680795D01*
X171277050Y-85685848D01*
X171277050Y-85924152D01*
X170977950Y-85924152D01*
X170977950Y-85685848D01*
X170938726Y-85450794D01*
X170861349Y-85225403D01*
X170747929Y-85015821D01*
X170744311Y-85011173D01*
X170604710Y-84831812D01*
X170604709Y-84831811D01*
X170601560Y-84827765D01*
X170426234Y-84666367D01*
X170421950Y-84663568D01*
X170421946Y-84663565D01*
X170283241Y-84572945D01*
X170226734Y-84536027D01*
X170222044Y-84533970D01*
X170222039Y-84533967D01*
X170013198Y-84442361D01*
X170013199Y-84442361D01*
X170008502Y-84440301D01*
X170003532Y-84439042D01*
X170003531Y-84439042D01*
X169782464Y-84383060D01*
X169782457Y-84383058D01*
X169777490Y-84381801D01*
X169772378Y-84381377D01*
X169772370Y-84381376D01*
X169602038Y-84367262D01*
X169602022Y-84367261D01*
X169599472Y-84367050D01*
X169480528Y-84367050D01*
X169477978Y-84367261D01*
X169477961Y-84367262D01*
X169307629Y-84381376D01*
X169307619Y-84381377D01*
X169302510Y-84381801D01*
X169297544Y-84383058D01*
X169297535Y-84383060D01*
X169076468Y-84439042D01*
X169076463Y-84439043D01*
X169071498Y-84440301D01*
X169066804Y-84442359D01*
X169066801Y-84442361D01*
X168857960Y-84533967D01*
X168857950Y-84533972D01*
X168853266Y-84536027D01*
X168848978Y-84538828D01*
X168848977Y-84538829D01*
X168658053Y-84663565D01*
X168658043Y-84663572D01*
X168653766Y-84666367D01*
X168649999Y-84669834D01*
X168649996Y-84669837D01*
X168482213Y-84824291D01*
X168482208Y-84824295D01*
X168478440Y-84827765D01*
X168475296Y-84831804D01*
X168475289Y-84831812D01*
X168335221Y-85011772D01*
X168335213Y-85011783D01*
X168332071Y-85015821D01*
X168329632Y-85020327D01*
X168329628Y-85020334D01*
X168221089Y-85220896D01*
X168221084Y-85220906D01*
X168218651Y-85225403D01*
X168216990Y-85230239D01*
X168216986Y-85230250D01*
X168169030Y-85369943D01*
X168141274Y-85450794D01*
X168140431Y-85455840D01*
X168140429Y-85455852D01*
X168102894Y-85680785D01*
X168102893Y-85680795D01*
X168102050Y-85685848D01*
X168102050Y-85924152D01*
X164917932Y-85924152D01*
X164914940Y-83490000D01*
X197186709Y-83490000D01*
X197205845Y-83745353D01*
X197206874Y-83749862D01*
X197206876Y-83749874D01*
X197261793Y-83990476D01*
X197262826Y-83995001D01*
X197264521Y-83999320D01*
X197264522Y-83999323D01*
X197354680Y-84229044D01*
X197354683Y-84229050D01*
X197356378Y-84233369D01*
X197358696Y-84237384D01*
X197358699Y-84237390D01*
X197482092Y-84451112D01*
X197482096Y-84451117D01*
X197484413Y-84455131D01*
X197644069Y-84655334D01*
X197831781Y-84829505D01*
X197837351Y-84833303D01*
X197837976Y-84834002D01*
X197839239Y-84835009D01*
X197839067Y-84835223D01*
X197877129Y-84877813D01*
X197891500Y-84935756D01*
X197891500Y-86514358D01*
X197890903Y-86526511D01*
X197886620Y-86570000D01*
X197887217Y-86576062D01*
X197905493Y-86761636D01*
X197905494Y-86761642D01*
X197906091Y-86767701D01*
X197907858Y-86773527D01*
X197907860Y-86773535D01*
X197958407Y-86940162D01*
X197959460Y-86943633D01*
X197963759Y-86957804D01*
X198057405Y-87133004D01*
X198061271Y-87137715D01*
X198061272Y-87137716D01*
X198176587Y-87278228D01*
X198183432Y-87286568D01*
X198188137Y-87290429D01*
X198217213Y-87314291D01*
X198226230Y-87322464D01*
X200977534Y-90073768D01*
X200985706Y-90082784D01*
X201005416Y-90106800D01*
X201013432Y-90116568D01*
X201166995Y-90242594D01*
X201166996Y-90242595D01*
X201342196Y-90336241D01*
X201532299Y-90393908D01*
X201730000Y-90413380D01*
X201736061Y-90412783D01*
X201773486Y-90409097D01*
X201785640Y-90408500D01*
X210674358Y-90408500D01*
X210686511Y-90409096D01*
X210730000Y-90413380D01*
X210927701Y-90393909D01*
X211117804Y-90336241D01*
X211175498Y-90305403D01*
X211293004Y-90242595D01*
X211446568Y-90116568D01*
X211474307Y-90082765D01*
X211482451Y-90073781D01*
X211963781Y-89592451D01*
X211972765Y-89584307D01*
X212006568Y-89556568D01*
X212132595Y-89403004D01*
X212226241Y-89227804D01*
X212267801Y-89090800D01*
X212283909Y-89037700D01*
X212303380Y-88840000D01*
X212299096Y-88796511D01*
X212298500Y-88784358D01*
X212298500Y-85283811D01*
X212305979Y-85241399D01*
X212325701Y-85207238D01*
X212325573Y-85207149D01*
X212325572Y-85207149D01*
X212460731Y-85014122D01*
X212461550Y-85014695D01*
X212502929Y-84973318D01*
X212564933Y-84956707D01*
X212626935Y-84973325D01*
X212664776Y-85011173D01*
X212666658Y-85009856D01*
X212797857Y-85197228D01*
X212804792Y-85205493D01*
X212962706Y-85363407D01*
X212970971Y-85370342D01*
X213153904Y-85498433D01*
X213163254Y-85503831D01*
X213365653Y-85598212D01*
X213375787Y-85601900D01*
X213566219Y-85652927D01*
X213577448Y-85653295D01*
X213580000Y-85642353D01*
X214080000Y-85642353D01*
X214082551Y-85653295D01*
X214093780Y-85652927D01*
X214284212Y-85601900D01*
X214294346Y-85598212D01*
X214496745Y-85503831D01*
X214506095Y-85498433D01*
X214689028Y-85370342D01*
X214697293Y-85363407D01*
X214855207Y-85205493D01*
X214862142Y-85197228D01*
X214990233Y-85014295D01*
X214995631Y-85004945D01*
X215090012Y-84802546D01*
X215093700Y-84792412D01*
X215151502Y-84576696D01*
X215153376Y-84566065D01*
X215167963Y-84399330D01*
X215168200Y-84393921D01*
X215168200Y-83766326D01*
X215164749Y-83753450D01*
X215151874Y-83750000D01*
X214096326Y-83750000D01*
X214083450Y-83753450D01*
X214080000Y-83766326D01*
X214080000Y-85642353D01*
X213580000Y-85642353D01*
X213580000Y-83233674D01*
X214080000Y-83233674D01*
X214083450Y-83246549D01*
X214096326Y-83250000D01*
X215151874Y-83250000D01*
X215164749Y-83246549D01*
X215168200Y-83233674D01*
X215168200Y-82606079D01*
X215167963Y-82600669D01*
X215153376Y-82433934D01*
X215151502Y-82423303D01*
X215093700Y-82207587D01*
X215090012Y-82197453D01*
X214995631Y-81995054D01*
X214990233Y-81985704D01*
X214862142Y-81802771D01*
X214855207Y-81794506D01*
X214697293Y-81636592D01*
X214689028Y-81629657D01*
X214506095Y-81501566D01*
X214496745Y-81496168D01*
X214294346Y-81401787D01*
X214284212Y-81398099D01*
X214093780Y-81347072D01*
X214082551Y-81346704D01*
X214080000Y-81357647D01*
X214080000Y-83233674D01*
X213580000Y-83233674D01*
X213580000Y-81357647D01*
X213577448Y-81346704D01*
X213566219Y-81347072D01*
X213375787Y-81398099D01*
X213365653Y-81401787D01*
X213163254Y-81496168D01*
X213153904Y-81501566D01*
X212970971Y-81629657D01*
X212962706Y-81636592D01*
X212804792Y-81794506D01*
X212797857Y-81802771D01*
X212666658Y-81990144D01*
X212664806Y-81988847D01*
X212626809Y-82026747D01*
X212564840Y-82043292D01*
X212502894Y-82026660D01*
X212461548Y-81985305D01*
X212460731Y-81985878D01*
X212325573Y-81792851D01*
X212158949Y-81626227D01*
X212093549Y-81580434D01*
X211970361Y-81494177D01*
X211970359Y-81494176D01*
X211965922Y-81491069D01*
X211752358Y-81391482D01*
X211747133Y-81390082D01*
X211747125Y-81390079D01*
X211529971Y-81331894D01*
X211529967Y-81331893D01*
X211524745Y-81330494D01*
X211519357Y-81330022D01*
X211519354Y-81330022D01*
X211295395Y-81310428D01*
X211290000Y-81309956D01*
X211284605Y-81310428D01*
X211060645Y-81330022D01*
X211060640Y-81330022D01*
X211055255Y-81330494D01*
X211050034Y-81331892D01*
X211050028Y-81331894D01*
X210832874Y-81390079D01*
X210832862Y-81390083D01*
X210827642Y-81391482D01*
X210822737Y-81393768D01*
X210822732Y-81393771D01*
X210618988Y-81488779D01*
X210618984Y-81488781D01*
X210614078Y-81491069D01*
X210609645Y-81494172D01*
X210609638Y-81494177D01*
X210425486Y-81623121D01*
X210425481Y-81623124D01*
X210421051Y-81626227D01*
X210417227Y-81630050D01*
X210417221Y-81630056D01*
X210258256Y-81789021D01*
X210258250Y-81789027D01*
X210254427Y-81792851D01*
X210251324Y-81797281D01*
X210251321Y-81797286D01*
X210121575Y-81982584D01*
X210077257Y-82021450D01*
X210020000Y-82035461D01*
X209962743Y-82021450D01*
X209918425Y-81982584D01*
X209804348Y-81819665D01*
X209785573Y-81792851D01*
X209618949Y-81626227D01*
X209553549Y-81580434D01*
X209430361Y-81494177D01*
X209430359Y-81494176D01*
X209425922Y-81491069D01*
X209212358Y-81391482D01*
X209207133Y-81390082D01*
X209207125Y-81390079D01*
X208989971Y-81331894D01*
X208989967Y-81331893D01*
X208984745Y-81330494D01*
X208979357Y-81330022D01*
X208979354Y-81330022D01*
X208755395Y-81310428D01*
X208750000Y-81309956D01*
X208744605Y-81310428D01*
X208520645Y-81330022D01*
X208520640Y-81330022D01*
X208515255Y-81330494D01*
X208510034Y-81331892D01*
X208510028Y-81331894D01*
X208292874Y-81390079D01*
X208292862Y-81390083D01*
X208287642Y-81391482D01*
X208282737Y-81393768D01*
X208282732Y-81393771D01*
X208078988Y-81488779D01*
X208078984Y-81488781D01*
X208074078Y-81491069D01*
X208069645Y-81494172D01*
X208069638Y-81494177D01*
X207885486Y-81623121D01*
X207885481Y-81623124D01*
X207881051Y-81626227D01*
X207877227Y-81630050D01*
X207877221Y-81630056D01*
X207718256Y-81789021D01*
X207718250Y-81789027D01*
X207714427Y-81792851D01*
X207711324Y-81797281D01*
X207711321Y-81797286D01*
X207582377Y-81981438D01*
X207582372Y-81981445D01*
X207579269Y-81985878D01*
X207576981Y-81990784D01*
X207576979Y-81990788D01*
X207481971Y-82194532D01*
X207481968Y-82194537D01*
X207479682Y-82199442D01*
X207478283Y-82204662D01*
X207478279Y-82204674D01*
X207420094Y-82421828D01*
X207420092Y-82421834D01*
X207418694Y-82427055D01*
X207418222Y-82432440D01*
X207418222Y-82432445D01*
X207403536Y-82600306D01*
X207403300Y-82603005D01*
X207403300Y-84396995D01*
X207403535Y-84399691D01*
X207403536Y-84399693D01*
X207408703Y-84458757D01*
X207418694Y-84572945D01*
X207420093Y-84578167D01*
X207420094Y-84578171D01*
X207478279Y-84795325D01*
X207478282Y-84795333D01*
X207479682Y-84800558D01*
X207481970Y-84805465D01*
X207481971Y-84805467D01*
X207515707Y-84877813D01*
X207579269Y-85014122D01*
X207582376Y-85018559D01*
X207582377Y-85018561D01*
X207668634Y-85141749D01*
X207714427Y-85207149D01*
X207881051Y-85373773D01*
X208074078Y-85508931D01*
X208287642Y-85608518D01*
X208515255Y-85669506D01*
X208750000Y-85690044D01*
X208984745Y-85669506D01*
X209212358Y-85608518D01*
X209425922Y-85508931D01*
X209618949Y-85373773D01*
X209785573Y-85207149D01*
X209918425Y-85017414D01*
X209962743Y-84978549D01*
X210020000Y-84964538D01*
X210077257Y-84978549D01*
X210121574Y-85017414D01*
X210253396Y-85205676D01*
X210253398Y-85205680D01*
X210254427Y-85207149D01*
X210254298Y-85207238D01*
X210274021Y-85241399D01*
X210281500Y-85283811D01*
X210281500Y-88267500D01*
X210264887Y-88329500D01*
X210219500Y-88374887D01*
X210157500Y-88391500D01*
X202199096Y-88391500D01*
X202151643Y-88382061D01*
X202111415Y-88355181D01*
X199944819Y-86188585D01*
X199917939Y-86148357D01*
X199908500Y-86100904D01*
X199908500Y-84935756D01*
X199922871Y-84877813D01*
X199960932Y-84835223D01*
X199960761Y-84835009D01*
X199962023Y-84834002D01*
X199962648Y-84833303D01*
X199968219Y-84829505D01*
X200155931Y-84655334D01*
X200315587Y-84455131D01*
X200443622Y-84233369D01*
X200537174Y-83995001D01*
X200594155Y-83745353D01*
X200613291Y-83490000D01*
X200594155Y-83234647D01*
X200537174Y-82984999D01*
X200443622Y-82746631D01*
X200360699Y-82603005D01*
X200317907Y-82528887D01*
X200317905Y-82528885D01*
X200315587Y-82524869D01*
X200155931Y-82324666D01*
X199968219Y-82150495D01*
X199964385Y-82147881D01*
X199760482Y-82008861D01*
X199760478Y-82008859D01*
X199756646Y-82006246D01*
X199752460Y-82004230D01*
X199530118Y-81897156D01*
X199530113Y-81897154D01*
X199525935Y-81895142D01*
X199521502Y-81893774D01*
X199521498Y-81893773D01*
X199285678Y-81821033D01*
X199285677Y-81821032D01*
X199281243Y-81819665D01*
X199276655Y-81818973D01*
X199276653Y-81818973D01*
X199032619Y-81782191D01*
X199032618Y-81782190D01*
X199028034Y-81781500D01*
X198771966Y-81781500D01*
X198767382Y-81782190D01*
X198767380Y-81782191D01*
X198523346Y-81818973D01*
X198523341Y-81818973D01*
X198518757Y-81819665D01*
X198514324Y-81821032D01*
X198514321Y-81821033D01*
X198278502Y-81893773D01*
X198278497Y-81893774D01*
X198274065Y-81895142D01*
X198269886Y-81897154D01*
X198269882Y-81897156D01*
X198047540Y-82004230D01*
X198047533Y-82004233D01*
X198043355Y-82006246D01*
X198039522Y-82008859D01*
X198039519Y-82008861D01*
X197835615Y-82147881D01*
X197831781Y-82150495D01*
X197828389Y-82153641D01*
X197828383Y-82153647D01*
X197770250Y-82207587D01*
X197644069Y-82324666D01*
X197641180Y-82328288D01*
X197641176Y-82328293D01*
X197487305Y-82521242D01*
X197484413Y-82524869D01*
X197482099Y-82528875D01*
X197482092Y-82528887D01*
X197358699Y-82742609D01*
X197358693Y-82742620D01*
X197356378Y-82746631D01*
X197354685Y-82750944D01*
X197354680Y-82750955D01*
X197264522Y-82980676D01*
X197264519Y-82980683D01*
X197262826Y-82984999D01*
X197261794Y-82989517D01*
X197261793Y-82989523D01*
X197206876Y-83230125D01*
X197206873Y-83230139D01*
X197205845Y-83234647D01*
X197186709Y-83490000D01*
X164914940Y-83490000D01*
X164910108Y-79558406D01*
X164920469Y-79508637D01*
X164949933Y-79467206D01*
X164993545Y-79441080D01*
X165150276Y-79386827D01*
X165190870Y-79380006D01*
X230266057Y-79399961D01*
G37*
G04 #@! TD.AperFunction*
M02*
