G04 #@! TF.GenerationSoftware,KiCad,Pcbnew,(7.0.0-0)*
G04 #@! TF.CreationDate,2023-03-22T08:14:14+00:00*
G04 #@! TF.ProjectId,ESP_AC_CDI_1,4553505f-4143-45f4-9344-495f312e6b69,rev?*
G04 #@! TF.SameCoordinates,Original*
G04 #@! TF.FileFunction,Legend,Bot*
G04 #@! TF.FilePolarity,Positive*
%FSLAX46Y46*%
G04 Gerber Fmt 4.6, Leading zero omitted, Abs format (unit mm)*
G04 Created by KiCad (PCBNEW (7.0.0-0)) date 2023-03-22 08:14:14*
%MOMM*%
%LPD*%
G01*
G04 APERTURE LIST*
%ADD10C,0.150000*%
%ADD11O,2.200000X2.200000*%
%ADD12R,2.200000X2.200000*%
%ADD13C,1.498600*%
%ADD14R,1.498600X1.498600*%
%ADD15C,3.302000*%
%ADD16O,1.676400X3.352800*%
%ADD17C,2.400000*%
%ADD18R,1.700000X1.700000*%
%ADD19O,1.700000X1.700000*%
%ADD20O,2.400000X2.400000*%
%ADD21C,2.374900*%
%ADD22C,0.990600*%
G04 APERTURE END LIST*
D10*
X224948569Y-147023571D02*
X224948569Y-148095000D01*
X224948569Y-148095000D02*
X225019998Y-148309285D01*
X225019998Y-148309285D02*
X225162855Y-148452142D01*
X225162855Y-148452142D02*
X225377141Y-148523571D01*
X225377141Y-148523571D02*
X225519998Y-148523571D01*
X224448569Y-147023571D02*
X223591427Y-147023571D01*
X224019998Y-148523571D02*
X224019998Y-147023571D01*
X222191427Y-147737857D02*
X221691427Y-147737857D01*
X221477141Y-148523571D02*
X222191427Y-148523571D01*
X222191427Y-148523571D02*
X222191427Y-147023571D01*
X222191427Y-147023571D02*
X221477141Y-147023571D01*
X220619998Y-148523571D02*
X220762855Y-148452142D01*
X220762855Y-148452142D02*
X220834284Y-148309285D01*
X220834284Y-148309285D02*
X220834284Y-147023571D01*
X219477141Y-148452142D02*
X219619998Y-148523571D01*
X219619998Y-148523571D02*
X219905713Y-148523571D01*
X219905713Y-148523571D02*
X220048570Y-148452142D01*
X220048570Y-148452142D02*
X220119998Y-148309285D01*
X220119998Y-148309285D02*
X220119998Y-147737857D01*
X220119998Y-147737857D02*
X220048570Y-147595000D01*
X220048570Y-147595000D02*
X219905713Y-147523571D01*
X219905713Y-147523571D02*
X219619998Y-147523571D01*
X219619998Y-147523571D02*
X219477141Y-147595000D01*
X219477141Y-147595000D02*
X219405713Y-147737857D01*
X219405713Y-147737857D02*
X219405713Y-147880714D01*
X219405713Y-147880714D02*
X220119998Y-148023571D01*
X218119999Y-148452142D02*
X218262856Y-148523571D01*
X218262856Y-148523571D02*
X218548570Y-148523571D01*
X218548570Y-148523571D02*
X218691427Y-148452142D01*
X218691427Y-148452142D02*
X218762856Y-148380714D01*
X218762856Y-148380714D02*
X218834284Y-148237857D01*
X218834284Y-148237857D02*
X218834284Y-147809285D01*
X218834284Y-147809285D02*
X218762856Y-147666428D01*
X218762856Y-147666428D02*
X218691427Y-147595000D01*
X218691427Y-147595000D02*
X218548570Y-147523571D01*
X218548570Y-147523571D02*
X218262856Y-147523571D01*
X218262856Y-147523571D02*
X218119999Y-147595000D01*
X217691427Y-147523571D02*
X217119999Y-147523571D01*
X217477142Y-147023571D02*
X217477142Y-148309285D01*
X217477142Y-148309285D02*
X217405713Y-148452142D01*
X217405713Y-148452142D02*
X217262856Y-148523571D01*
X217262856Y-148523571D02*
X217119999Y-148523571D01*
X216619999Y-148523571D02*
X216619999Y-147523571D01*
X216619999Y-147809285D02*
X216548570Y-147666428D01*
X216548570Y-147666428D02*
X216477142Y-147595000D01*
X216477142Y-147595000D02*
X216334284Y-147523571D01*
X216334284Y-147523571D02*
X216191427Y-147523571D01*
X215477142Y-148523571D02*
X215619999Y-148452142D01*
X215619999Y-148452142D02*
X215691428Y-148380714D01*
X215691428Y-148380714D02*
X215762856Y-148237857D01*
X215762856Y-148237857D02*
X215762856Y-147809285D01*
X215762856Y-147809285D02*
X215691428Y-147666428D01*
X215691428Y-147666428D02*
X215619999Y-147595000D01*
X215619999Y-147595000D02*
X215477142Y-147523571D01*
X215477142Y-147523571D02*
X215262856Y-147523571D01*
X215262856Y-147523571D02*
X215119999Y-147595000D01*
X215119999Y-147595000D02*
X215048571Y-147666428D01*
X215048571Y-147666428D02*
X214977142Y-147809285D01*
X214977142Y-147809285D02*
X214977142Y-148237857D01*
X214977142Y-148237857D02*
X215048571Y-148380714D01*
X215048571Y-148380714D02*
X215119999Y-148452142D01*
X215119999Y-148452142D02*
X215262856Y-148523571D01*
X215262856Y-148523571D02*
X215477142Y-148523571D01*
X214334285Y-147523571D02*
X214334285Y-148523571D01*
X214334285Y-147666428D02*
X214262856Y-147595000D01*
X214262856Y-147595000D02*
X214119999Y-147523571D01*
X214119999Y-147523571D02*
X213905713Y-147523571D01*
X213905713Y-147523571D02*
X213762856Y-147595000D01*
X213762856Y-147595000D02*
X213691428Y-147737857D01*
X213691428Y-147737857D02*
X213691428Y-148523571D01*
X212977142Y-148523571D02*
X212977142Y-147523571D01*
X212977142Y-147023571D02*
X213048570Y-147095000D01*
X213048570Y-147095000D02*
X212977142Y-147166428D01*
X212977142Y-147166428D02*
X212905713Y-147095000D01*
X212905713Y-147095000D02*
X212977142Y-147023571D01*
X212977142Y-147023571D02*
X212977142Y-147166428D01*
X211619999Y-148452142D02*
X211762856Y-148523571D01*
X211762856Y-148523571D02*
X212048570Y-148523571D01*
X212048570Y-148523571D02*
X212191427Y-148452142D01*
X212191427Y-148452142D02*
X212262856Y-148380714D01*
X212262856Y-148380714D02*
X212334284Y-148237857D01*
X212334284Y-148237857D02*
X212334284Y-147809285D01*
X212334284Y-147809285D02*
X212262856Y-147666428D01*
X212262856Y-147666428D02*
X212191427Y-147595000D01*
X212191427Y-147595000D02*
X212048570Y-147523571D01*
X212048570Y-147523571D02*
X211762856Y-147523571D01*
X211762856Y-147523571D02*
X211619999Y-147595000D01*
X211048570Y-148452142D02*
X210905713Y-148523571D01*
X210905713Y-148523571D02*
X210619999Y-148523571D01*
X210619999Y-148523571D02*
X210477142Y-148452142D01*
X210477142Y-148452142D02*
X210405713Y-148309285D01*
X210405713Y-148309285D02*
X210405713Y-148237857D01*
X210405713Y-148237857D02*
X210477142Y-148095000D01*
X210477142Y-148095000D02*
X210619999Y-148023571D01*
X210619999Y-148023571D02*
X210834285Y-148023571D01*
X210834285Y-148023571D02*
X210977142Y-147952142D01*
X210977142Y-147952142D02*
X211048570Y-147809285D01*
X211048570Y-147809285D02*
X211048570Y-147737857D01*
X211048570Y-147737857D02*
X210977142Y-147595000D01*
X210977142Y-147595000D02*
X210834285Y-147523571D01*
X210834285Y-147523571D02*
X210619999Y-147523571D01*
X210619999Y-147523571D02*
X210477142Y-147595000D01*
X208934284Y-147166428D02*
X208862856Y-147095000D01*
X208862856Y-147095000D02*
X208719999Y-147023571D01*
X208719999Y-147023571D02*
X208362856Y-147023571D01*
X208362856Y-147023571D02*
X208219999Y-147095000D01*
X208219999Y-147095000D02*
X208148570Y-147166428D01*
X208148570Y-147166428D02*
X208077141Y-147309285D01*
X208077141Y-147309285D02*
X208077141Y-147452142D01*
X208077141Y-147452142D02*
X208148570Y-147666428D01*
X208148570Y-147666428D02*
X209005713Y-148523571D01*
X209005713Y-148523571D02*
X208077141Y-148523571D01*
X207148570Y-147023571D02*
X207005713Y-147023571D01*
X207005713Y-147023571D02*
X206862856Y-147095000D01*
X206862856Y-147095000D02*
X206791428Y-147166428D01*
X206791428Y-147166428D02*
X206719999Y-147309285D01*
X206719999Y-147309285D02*
X206648570Y-147595000D01*
X206648570Y-147595000D02*
X206648570Y-147952142D01*
X206648570Y-147952142D02*
X206719999Y-148237857D01*
X206719999Y-148237857D02*
X206791428Y-148380714D01*
X206791428Y-148380714D02*
X206862856Y-148452142D01*
X206862856Y-148452142D02*
X207005713Y-148523571D01*
X207005713Y-148523571D02*
X207148570Y-148523571D01*
X207148570Y-148523571D02*
X207291428Y-148452142D01*
X207291428Y-148452142D02*
X207362856Y-148380714D01*
X207362856Y-148380714D02*
X207434285Y-148237857D01*
X207434285Y-148237857D02*
X207505713Y-147952142D01*
X207505713Y-147952142D02*
X207505713Y-147595000D01*
X207505713Y-147595000D02*
X207434285Y-147309285D01*
X207434285Y-147309285D02*
X207362856Y-147166428D01*
X207362856Y-147166428D02*
X207291428Y-147095000D01*
X207291428Y-147095000D02*
X207148570Y-147023571D01*
X206077142Y-147166428D02*
X206005714Y-147095000D01*
X206005714Y-147095000D02*
X205862857Y-147023571D01*
X205862857Y-147023571D02*
X205505714Y-147023571D01*
X205505714Y-147023571D02*
X205362857Y-147095000D01*
X205362857Y-147095000D02*
X205291428Y-147166428D01*
X205291428Y-147166428D02*
X205219999Y-147309285D01*
X205219999Y-147309285D02*
X205219999Y-147452142D01*
X205219999Y-147452142D02*
X205291428Y-147666428D01*
X205291428Y-147666428D02*
X206148571Y-148523571D01*
X206148571Y-148523571D02*
X205219999Y-148523571D01*
X204720000Y-147023571D02*
X203791428Y-147023571D01*
X203791428Y-147023571D02*
X204291428Y-147595000D01*
X204291428Y-147595000D02*
X204077143Y-147595000D01*
X204077143Y-147595000D02*
X203934286Y-147666428D01*
X203934286Y-147666428D02*
X203862857Y-147737857D01*
X203862857Y-147737857D02*
X203791428Y-147880714D01*
X203791428Y-147880714D02*
X203791428Y-148237857D01*
X203791428Y-148237857D02*
X203862857Y-148380714D01*
X203862857Y-148380714D02*
X203934286Y-148452142D01*
X203934286Y-148452142D02*
X204077143Y-148523571D01*
X204077143Y-148523571D02*
X204505714Y-148523571D01*
X204505714Y-148523571D02*
X204648571Y-148452142D01*
X204648571Y-148452142D02*
X204720000Y-148380714D01*
X221362856Y-150525000D02*
X220648571Y-150525000D01*
X221505713Y-150953571D02*
X221005713Y-149453571D01*
X221005713Y-149453571D02*
X220505713Y-150953571D01*
X219148571Y-150810714D02*
X219219999Y-150882142D01*
X219219999Y-150882142D02*
X219434285Y-150953571D01*
X219434285Y-150953571D02*
X219577142Y-150953571D01*
X219577142Y-150953571D02*
X219791428Y-150882142D01*
X219791428Y-150882142D02*
X219934285Y-150739285D01*
X219934285Y-150739285D02*
X220005714Y-150596428D01*
X220005714Y-150596428D02*
X220077142Y-150310714D01*
X220077142Y-150310714D02*
X220077142Y-150096428D01*
X220077142Y-150096428D02*
X220005714Y-149810714D01*
X220005714Y-149810714D02*
X219934285Y-149667857D01*
X219934285Y-149667857D02*
X219791428Y-149525000D01*
X219791428Y-149525000D02*
X219577142Y-149453571D01*
X219577142Y-149453571D02*
X219434285Y-149453571D01*
X219434285Y-149453571D02*
X219219999Y-149525000D01*
X219219999Y-149525000D02*
X219148571Y-149596428D01*
X216748571Y-150810714D02*
X216819999Y-150882142D01*
X216819999Y-150882142D02*
X217034285Y-150953571D01*
X217034285Y-150953571D02*
X217177142Y-150953571D01*
X217177142Y-150953571D02*
X217391428Y-150882142D01*
X217391428Y-150882142D02*
X217534285Y-150739285D01*
X217534285Y-150739285D02*
X217605714Y-150596428D01*
X217605714Y-150596428D02*
X217677142Y-150310714D01*
X217677142Y-150310714D02*
X217677142Y-150096428D01*
X217677142Y-150096428D02*
X217605714Y-149810714D01*
X217605714Y-149810714D02*
X217534285Y-149667857D01*
X217534285Y-149667857D02*
X217391428Y-149525000D01*
X217391428Y-149525000D02*
X217177142Y-149453571D01*
X217177142Y-149453571D02*
X217034285Y-149453571D01*
X217034285Y-149453571D02*
X216819999Y-149525000D01*
X216819999Y-149525000D02*
X216748571Y-149596428D01*
X216105714Y-150953571D02*
X216105714Y-149453571D01*
X216105714Y-149453571D02*
X215748571Y-149453571D01*
X215748571Y-149453571D02*
X215534285Y-149525000D01*
X215534285Y-149525000D02*
X215391428Y-149667857D01*
X215391428Y-149667857D02*
X215319999Y-149810714D01*
X215319999Y-149810714D02*
X215248571Y-150096428D01*
X215248571Y-150096428D02*
X215248571Y-150310714D01*
X215248571Y-150310714D02*
X215319999Y-150596428D01*
X215319999Y-150596428D02*
X215391428Y-150739285D01*
X215391428Y-150739285D02*
X215534285Y-150882142D01*
X215534285Y-150882142D02*
X215748571Y-150953571D01*
X215748571Y-150953571D02*
X216105714Y-150953571D01*
X214605714Y-150953571D02*
X214605714Y-149453571D01*
X213205713Y-149453571D02*
X212705713Y-150953571D01*
X212705713Y-150953571D02*
X212205713Y-149453571D01*
X210519999Y-149453571D02*
X210377142Y-149453571D01*
X210377142Y-149453571D02*
X210234285Y-149525000D01*
X210234285Y-149525000D02*
X210162857Y-149596428D01*
X210162857Y-149596428D02*
X210091428Y-149739285D01*
X210091428Y-149739285D02*
X210019999Y-150025000D01*
X210019999Y-150025000D02*
X210019999Y-150382142D01*
X210019999Y-150382142D02*
X210091428Y-150667857D01*
X210091428Y-150667857D02*
X210162857Y-150810714D01*
X210162857Y-150810714D02*
X210234285Y-150882142D01*
X210234285Y-150882142D02*
X210377142Y-150953571D01*
X210377142Y-150953571D02*
X210519999Y-150953571D01*
X210519999Y-150953571D02*
X210662857Y-150882142D01*
X210662857Y-150882142D02*
X210734285Y-150810714D01*
X210734285Y-150810714D02*
X210805714Y-150667857D01*
X210805714Y-150667857D02*
X210877142Y-150382142D01*
X210877142Y-150382142D02*
X210877142Y-150025000D01*
X210877142Y-150025000D02*
X210805714Y-149739285D01*
X210805714Y-149739285D02*
X210734285Y-149596428D01*
X210734285Y-149596428D02*
X210662857Y-149525000D01*
X210662857Y-149525000D02*
X210519999Y-149453571D01*
X209377143Y-150810714D02*
X209305714Y-150882142D01*
X209305714Y-150882142D02*
X209377143Y-150953571D01*
X209377143Y-150953571D02*
X209448571Y-150882142D01*
X209448571Y-150882142D02*
X209377143Y-150810714D01*
X209377143Y-150810714D02*
X209377143Y-150953571D01*
X207877142Y-150953571D02*
X208734285Y-150953571D01*
X208305714Y-150953571D02*
X208305714Y-149453571D01*
X208305714Y-149453571D02*
X208448571Y-149667857D01*
X208448571Y-149667857D02*
X208591428Y-149810714D01*
X208591428Y-149810714D02*
X208734285Y-149882142D01*
%LPC*%
D11*
X226609999Y-94609999D03*
D12*
X226609999Y-102229999D03*
X220429999Y-94609999D03*
D11*
X220429999Y-102229999D03*
D12*
X191439999Y-125999999D03*
D11*
X191439999Y-118379999D03*
D12*
X198669999Y-130949999D03*
D11*
X198669999Y-123329999D03*
D13*
X198175000Y-148165000D03*
X198175000Y-145625000D03*
D14*
X198174999Y-143084999D03*
D15*
X211290000Y-101026000D03*
D16*
X211289999Y-83499999D03*
X213829999Y-83499999D03*
X208749999Y-83499999D03*
D17*
X198900000Y-83490000D03*
X198900000Y-105990000D03*
D18*
X192249999Y-146134999D03*
D19*
X192249999Y-148674999D03*
X189709999Y-146134999D03*
X189709999Y-148674999D03*
X187169999Y-146134999D03*
X187169999Y-148674999D03*
X184629999Y-146134999D03*
X184629999Y-148674999D03*
X182089999Y-146134999D03*
X182089999Y-148674999D03*
X179549999Y-146134999D03*
X179549999Y-148674999D03*
X177009999Y-146134999D03*
X177009999Y-148674999D03*
X174469999Y-146134999D03*
X174469999Y-148674999D03*
X171929999Y-146134999D03*
X171929999Y-148674999D03*
D17*
X224710000Y-137110000D03*
D20*
X209469999Y-137109999D03*
D21*
X169540000Y-85805000D03*
D22*
X169540000Y-88345000D03*
D21*
X169540000Y-90885000D03*
X172715000Y-85805000D03*
X172715000Y-90885000D03*
D22*
X174620000Y-87329000D03*
X174620000Y-89361000D03*
D18*
X207414999Y-113214999D03*
D19*
X207414999Y-115754999D03*
X207414999Y-118294999D03*
X207414999Y-120834999D03*
X207414999Y-123374999D03*
X207414999Y-125914999D03*
X207414999Y-128454999D03*
X207414999Y-130994999D03*
M02*
